<svg width="24" height="25" viewBox="0 0 24 25" fill="none" xmlns="http://www.w3.org/2000/svg">
<path d="M16.017 2.43103H7.947C6.37015 2.43288 4.85844 3.06017 3.74353 4.17527C2.62862 5.29036 2.00159 6.80218 2 8.37903L2 16.449C2.00185 18.0259 2.62914 19.5376 3.74424 20.6525C4.85933 21.7674 6.37115 22.3944 7.948 22.396H16.018C17.5948 22.3942 19.1066 21.7669 20.2215 20.6518C21.3364 19.5367 21.9634 18.0249 21.965 16.448V8.37803C21.9631 6.80118 21.3359 5.28947 20.2208 4.17456C19.1057 3.05965 17.5938 2.43262 16.017 2.43103V2.43103ZM19.957 16.448C19.957 16.9654 19.8551 17.4778 19.6571 17.9558C19.4591 18.4338 19.1689 18.8682 18.803 19.234C18.4371 19.5999 18.0028 19.8901 17.5248 20.0881C17.0468 20.2861 16.5344 20.388 16.017 20.388H7.947C6.90222 20.3878 5.90032 19.9725 5.16165 19.2337C4.42297 18.4948 4.008 17.4928 4.008 16.448V8.37803C4.00827 7.33325 4.42349 6.33135 5.16235 5.59268C5.90122 4.854 6.90322 4.43903 7.948 4.43903H16.018C17.0628 4.4393 18.0647 4.85452 18.8034 5.59338C19.542 6.33225 19.957 7.33425 19.957 8.37903V16.449V16.448Z" fill="white"/>
<path d="M11.9823 7.25C10.6137 7.25212 9.30184 7.79679 8.33421 8.76461C7.36658 9.73243 6.82216 11.0444 6.82031 12.413C6.8219 13.7819 7.36634 15.0943 8.33421 16.0624C9.30209 17.0305 10.6144 17.5751 11.9833 17.577C13.3524 17.5754 14.665 17.0308 15.6331 16.0627C16.6012 15.0947 17.1457 13.7821 17.1473 12.413C17.1452 11.0441 16.6003 9.73188 15.632 8.76419C14.6637 7.7965 13.3512 7.25232 11.9823 7.251V7.25ZM11.9823 15.569C11.1456 15.569 10.3431 15.2366 9.75139 14.6449C9.15971 14.0532 8.82731 13.2508 8.82731 12.414C8.82731 11.5772 9.15971 10.7748 9.75139 10.1831C10.3431 9.5914 11.1456 9.259 11.9823 9.259C12.8191 9.259 13.6216 9.5914 14.2132 10.1831C14.8049 10.7748 15.1373 11.5772 15.1373 12.414C15.1373 13.2508 14.8049 14.0532 14.2132 14.6449C13.6216 15.2366 12.8191 15.569 11.9823 15.569Z" fill="white"/>
<path d="M17.1559 8.526C17.8391 8.526 18.3929 7.97218 18.3929 7.289C18.3929 6.60583 17.8391 6.052 17.1559 6.052C16.4728 6.052 15.9189 6.60583 15.9189 7.289C15.9189 7.97218 16.4728 8.526 17.1559 8.526Z" fill="white"/>
</svg>
