<svg width="24" height="25" viewBox="0 0 24 25" fill="none" xmlns="http://www.w3.org/2000/svg">
<path d="M21.959 14.15V21.529H17.681V14.644C17.681 12.914 17.062 11.734 15.514 11.734C14.332 11.734 13.628 12.53 13.319 13.299C13.206 13.574 13.177 13.957 13.177 14.342V21.529H8.897C8.897 21.529 8.955 9.86903 8.897 8.66003H13.177V10.484L13.149 10.526H13.177V10.484C13.745 9.60903 14.76 8.35803 17.033 8.35803C19.848 8.35803 21.959 10.198 21.959 14.15ZM4.421 2.45703C2.958 2.45703 2 3.41703 2 4.68003C2 5.91503 2.93 6.90403 4.365 6.90403H4.393C5.886 6.90403 6.813 5.91503 6.813 4.68003C6.787 3.41703 5.887 2.45703 4.422 2.45703H4.421ZM2.254 21.529H6.532V8.66003H2.254V21.529Z" fill="white"/>
</svg>
