<svg width="24" height="25" viewBox="0 0 24 25" fill="none" xmlns="http://www.w3.org/2000/svg">
<path d="M22 6.33801C21.2504 6.66539 20.4565 6.88005 19.644 6.97501C20.4968 6.47424 21.138 5.68012 21.448 4.74101C20.64 5.21134 19.7587 5.54261 18.841 5.72101C18.4545 5.31622 17.9897 4.9944 17.4748 4.77519C16.9598 4.55598 16.4056 4.44398 15.846 4.44601C13.58 4.44601 11.743 6.25601 11.743 8.48601C11.743 8.80201 11.779 9.11101 11.849 9.40601C10.2236 9.32871 8.63212 8.91342 7.17617 8.18665C5.72022 7.45988 4.43176 6.43759 3.393 5.18501C3.02883 5.79941 2.83742 6.50079 2.839 7.21501C2.8397 7.88298 3.00683 8.54024 3.32529 9.1274C3.64375 9.71457 4.1035 10.2131 4.663 10.578C4.01248 10.557 3.37602 10.3833 2.805 10.071V10.121C2.805 12.079 4.22 13.712 6.095 14.084C5.74261 14.1775 5.37958 14.2249 5.015 14.225C4.75 14.225 4.493 14.2 4.242 14.15C4.51008 14.9579 5.02311 15.6623 5.70982 16.1654C6.39653 16.6684 7.22284 16.9451 8.074 16.957C6.61407 18.0816 4.82182 18.6891 2.979 18.684C2.647 18.684 2.321 18.664 2 18.628C3.88125 19.8187 6.06259 20.4493 8.289 20.446C15.836 20.446 19.962 14.289 19.962 8.95001L19.948 8.42701C20.7529 7.86068 21.4481 7.15286 22 6.33801Z" fill="white"/>
</svg>
