<svg width="24" height="25" viewBox="0 0 24 25" fill="none" xmlns="http://www.w3.org/2000/svg">
<path d="M17.812 5.44802H6.145C3.855 5.44802 2 7.28302 2 9.54702V15.315C2 17.579 3.856 19.415 6.145 19.415H17.812C20.102 19.415 21.957 17.579 21.957 15.315V9.54702C21.957 7.28302 20.101 5.44702 17.812 5.44702V5.44802ZM15.009 12.711L9.552 15.286C9.51872 15.302 9.48192 15.3094 9.44503 15.3074C9.40815 15.3054 9.37237 15.294 9.34103 15.2745C9.3097 15.2549 9.28382 15.2277 9.2658 15.1955C9.24779 15.1632 9.23822 15.127 9.238 15.09V9.78102C9.23867 9.7439 9.24872 9.70754 9.26722 9.67535C9.28573 9.64315 9.31208 9.61616 9.34382 9.5969C9.37556 9.57763 9.41167 9.56672 9.44877 9.56516C9.48587 9.56361 9.52276 9.57148 9.556 9.58802L15.014 12.323C15.0504 12.3412 15.0809 12.3692 15.102 12.4038C15.1232 12.4385 15.1341 12.4785 15.1336 12.5191C15.1331 12.5597 15.1211 12.5994 15.0991 12.6335C15.077 12.6676 15.0458 12.6948 15.009 12.712V12.711Z" fill="white"/>
</svg>
