<svg width="50" height="50" viewBox="0 0 50 50" fill="none" xmlns="http://www.w3.org/2000/svg">
<path d="M24.9994 45.8337C36.5052 45.8337 45.8327 36.5062 45.8327 25.0003C45.8327 13.4944 36.5052 4.16699 24.9994 4.16699C13.4934 4.16699 4.16602 13.4944 4.16602 25.0003C4.16602 36.5062 13.4934 45.8337 24.9994 45.8337Z" fill="#06B6D4"/>
<path opacity="0.5" d="M16 23C16 19.2288 16 17.3432 17.1716 16.1716C18.3431 15 20.2288 15 24 15H26C29.7712 15 31.6569 15 32.8284 16.1716C34 17.3432 34 19.2288 34 23V27C34 30.7712 34 32.6569 32.8284 33.8284C31.6569 35 29.7712 35 26 35H24C20.2288 35 18.3431 35 17.1716 33.8284C16 32.6569 16 30.7712 16 27V23Z" fill="white"/>
<path fill-rule="evenodd" clip-rule="evenodd" d="M20.25 23C20.25 22.5858 20.5858 22.25 21 22.25H29C29.4142 22.25 29.75 22.5858 29.75 23C29.75 23.4142 29.4142 23.75 29 23.75H21C20.5858 23.75 20.25 23.4142 20.25 23Z" fill="white"/>
<path fill-rule="evenodd" clip-rule="evenodd" d="M20.25 27C20.25 26.5858 20.5858 26.25 21 26.25H26C26.4142 26.25 26.75 26.5858 26.75 27C26.75 27.4142 26.4142 27.75 26 27.75H21C20.5858 27.75 20.25 27.4142 20.25 27Z" fill="white"/>
</svg>
