<svg width="82" height="46" viewBox="0 0 82 46" fill="none" xmlns="http://www.w3.org/2000/svg">
<path d="M3.52154 45.5002C2.81723 45.5002 2.2038 45.3942 1.68125 45.1745C1.1587 44.9549 0.749745 44.6368 0.461964 44.2127C0.166609 43.7886 0.0151464 43.2661 0 42.6375H1.75698C1.7797 42.9329 1.87058 43.1828 2.02205 43.3797C2.17351 43.5766 2.37799 43.728 2.63547 43.8265C2.89296 43.925 3.18075 43.978 3.50639 43.978C3.83204 43.978 4.11225 43.9325 4.34702 43.8416C4.58179 43.7508 4.77112 43.6144 4.90744 43.4478C5.04375 43.2812 5.11191 43.0843 5.11191 42.8571C5.11191 42.6526 5.05133 42.486 4.93015 42.3497C4.80898 42.2134 4.6348 42.0998 4.41518 42.0014C4.18798 41.9029 3.91535 41.8196 3.59727 41.7439L2.6279 41.5015C1.88573 41.3198 1.30259 41.032 0.87849 40.6458C0.45439 40.2595 0.249915 39.7445 0.249915 39.1084C0.249915 38.5783 0.393807 38.1087 0.681588 37.7149C0.96937 37.3135 1.3556 37.0106 1.85544 36.7834C2.35527 36.5638 2.92326 36.4502 3.55941 36.4502C4.2107 36.4502 4.77869 36.5638 5.26338 36.7834C5.74806 37.003 6.12672 37.3135 6.39936 37.7149C6.67199 38.1087 6.80831 38.5631 6.81588 39.0857H5.07405C5.04375 38.7297 4.89229 38.4571 4.61966 38.2678C4.34702 38.0784 3.99108 37.98 3.54426 37.98C3.24133 37.98 2.98384 38.0254 2.76422 38.1087C2.5446 38.192 2.38556 38.3132 2.27196 38.4722C2.15836 38.6313 2.10535 38.7979 2.10535 38.9948C2.10535 39.2144 2.17351 39.3886 2.30225 39.5325C2.431 39.6764 2.60518 39.79 2.8248 39.8809C3.04443 39.9717 3.27162 40.0399 3.51396 40.1005L4.30915 40.2974C4.68024 40.3807 5.02103 40.4943 5.34668 40.6306C5.66476 40.7745 5.94497 40.9487 6.18731 41.1532C6.42965 41.3576 6.61141 41.6076 6.74772 41.8878C6.88404 42.168 6.94463 42.5012 6.94463 42.8723C6.94463 43.4024 6.80831 43.8644 6.54325 44.2657C6.27818 44.6596 5.88438 44.9701 5.37698 45.1821C4.84685 45.3866 4.24099 45.5002 3.52154 45.5002Z" fill="#1E3A8A"/>
<path d="M9.01953 45.3711V36.5635H11.0264L13.8134 41.0165C13.9573 41.2437 14.1012 41.4936 14.245 41.7587C14.3889 42.0238 14.5404 42.3267 14.6919 42.6523C14.8433 42.978 14.9948 43.3491 15.1463 43.758H14.9645C14.9342 43.4324 14.9115 43.084 14.8888 42.7129C14.866 42.3418 14.8509 41.9859 14.8358 41.6527C14.8206 41.3119 14.813 41.0241 14.813 40.7893V36.5635H16.6533V45.3711H14.6389L12.1094 41.327C11.9276 41.0241 11.7535 40.7287 11.5944 40.441C11.4354 40.1532 11.2688 39.8427 11.1022 39.4943C10.928 39.1459 10.7235 38.737 10.4887 38.2599H10.7159C10.7387 38.684 10.7614 39.0929 10.7841 39.4867C10.8068 39.873 10.8295 40.2289 10.8371 40.547C10.8522 40.8651 10.8598 41.1225 10.8598 41.327V45.3711H9.01953Z" fill="#1E3A8A"/>
<path d="M18.5244 45.3711L21.531 36.5635H23.8938L26.9761 45.3711H24.9692L23.5606 41.1225C23.394 40.5773 23.2198 39.979 23.0456 39.3201C22.8714 38.6688 22.6897 37.9569 22.4928 37.1845H22.8866C22.6973 37.9569 22.5231 38.6764 22.3565 39.3353C22.1898 39.9941 22.0308 40.5848 21.8718 41.1225L20.5162 45.3711H18.5244ZM20.4026 43.3264V41.9177H25.098V43.3264H20.4026Z" fill="#1E3A8A"/>
<path d="M28.8613 45.3711V36.5635H32.292C32.9584 36.5635 33.534 36.6922 33.996 36.9421C34.4655 37.1996 34.8214 37.548 35.0714 37.9948C35.3213 38.4416 35.4424 38.9566 35.4424 39.5322C35.4424 40.1153 35.3137 40.6303 35.0638 41.0695C34.8139 41.5164 34.4504 41.8571 33.9732 42.1071C33.4961 42.357 32.9206 42.4857 32.2465 42.4857H30.0352V41.0317H31.9588C32.3298 41.0317 32.6328 40.9711 32.8751 40.8423C33.1099 40.7136 33.2917 40.5394 33.4053 40.3122C33.5188 40.085 33.5794 39.8275 33.5794 39.5322C33.5794 39.2368 33.5188 38.9793 33.4053 38.7521C33.2917 38.5325 33.1099 38.3583 32.8675 38.2296C32.6252 38.1084 32.3223 38.0403 31.9512 38.0403H30.6562V45.356H28.8613V45.3711Z" fill="#1E3A8A"/>
<path d="M40.9707 45.3711V36.5635H42.7731V43.8716H46.5749V45.3635H40.9707V45.3711Z" fill="#1E3A8A"/>
<path d="M48.6045 45.3711V36.5635H54.4964V38.0554H50.4069V40.1835H54.1859V41.6527H50.4069V43.8716H54.5116V45.3635H48.6045V45.3711Z" fill="#1E3A8A"/>
<path d="M60.6543 45.4848C59.8288 45.4848 59.1093 45.303 58.4883 44.9395C57.8673 44.576 57.3826 44.0535 57.0343 43.3794C56.6859 42.7054 56.5117 41.9027 56.5117 40.9787C56.5117 40.0245 56.6935 39.2142 57.057 38.5326C57.4205 37.8586 57.9128 37.3436 58.5262 36.9801C59.1472 36.6241 59.8364 36.4424 60.6088 36.4424C61.1087 36.4424 61.5706 36.5105 61.9947 36.6544C62.4188 36.7983 62.8051 37.0028 63.1383 37.2679C63.4715 37.5329 63.7441 37.8434 63.9562 38.2069C64.1682 38.5705 64.3045 38.9643 64.3651 39.4035H62.5324C62.4718 39.1915 62.381 39.0021 62.2674 38.8355C62.1538 38.6689 62.0174 38.525 61.8584 38.4038C61.6994 38.2827 61.5176 38.1994 61.3131 38.1312C61.1087 38.0706 60.8815 38.0403 60.6391 38.0403C60.1847 38.0403 59.7833 38.1539 59.4425 38.3811C59.0942 38.6083 58.8291 38.934 58.6322 39.3732C58.4429 39.8049 58.3444 40.335 58.3444 40.956C58.3444 41.577 58.4429 42.1071 58.6322 42.5464C58.8215 42.9781 59.0942 43.3113 59.4425 43.5385C59.7909 43.7657 60.1999 43.8793 60.6694 43.8793C61.0935 43.8793 61.457 43.8035 61.7599 43.6521C62.0629 43.5006 62.2976 43.281 62.4567 42.9932C62.6233 42.7054 62.699 42.3722 62.699 41.9935L63.0777 42.0466H60.783V40.6758H64.4484V41.7739C64.4484 42.5464 64.2818 43.2053 63.9562 43.7657C63.6305 44.3185 63.1837 44.7426 62.6081 45.0455C62.0402 45.3409 61.3889 45.4848 60.6543 45.4848Z" fill="#1E3A8A"/>
<path d="M65.7432 45.3711L68.7497 36.5635H71.1126L74.1949 45.3711H72.1955L70.7869 41.1225C70.6203 40.5773 70.4461 39.979 70.2719 39.3201C70.0978 38.6688 69.916 37.9569 69.7191 37.1845H70.1129C69.9236 37.9569 69.7494 38.6764 69.5828 39.3353C69.4162 39.9941 69.2571 40.5848 69.0981 41.1225L67.7425 45.3711H65.7432ZM67.6213 43.3264V41.9177H72.3167V43.3264H67.6213Z" fill="#1E3A8A"/>
<path d="M76.0801 45.3711V36.5635H77.8825V43.8716H81.6842V45.3635H76.0801V45.3711Z" fill="#1E3A8A"/>
<path d="M52.6035 7.94459V11.4358C52.6035 14.2303 51.8613 16.987 50.4678 19.4028C49.0743 21.8263 47.0523 23.8407 44.6364 25.2342L40.8498 27.4229L37.0632 25.2342C34.708 23.871 32.7314 21.9247 31.3379 19.5922H34.8594C35.8591 20.8418 37.0859 21.9096 38.5097 22.7275L40.8498 24.0755L43.19 22.7275C47.2113 20.4025 49.7105 16.0782 49.7105 11.4283V10.83H35.4729V7.93701H52.6035V7.94459Z" fill="#1E3A8A"/>
<path d="M46.6057 6.49798V3.40054H31.9818V11.4433C31.9818 12.7534 32.1787 14.0409 32.5574 15.2602H44.3489V18.1531H30.5732C30.3536 17.676 30.1567 17.1989 29.9825 16.7067C29.8159 16.2295 29.672 15.7449 29.5508 15.2602C29.2403 14.0182 29.0889 12.7307 29.0889 11.4433V0.5H46.6057L52.6037 6.49798H46.6057Z" fill="#1E3A8A"/>
</svg>
