<svg width="394" height="384" viewBox="0 0 394 384" fill="none" xmlns="http://www.w3.org/2000/svg">
<g clip-path="url(#clip0_20_347)">
<rect width="393.333" height="384" rx="12" fill="#F3F5F7"/>
<path d="M360 393.875H40V73.875H360V393.875Z" stroke="#E5E7EB"/>
<g clip-path="url(#clip1_20_347)">
<rect x="40.5" y="74.5" width="299" height="415" rx="11.5" fill="white"/>
<rect x="40.5" y="74.5" width="299" height="415" rx="11.5" stroke="#D9DBE9"/>
<path d="M63.4716 99.5625C63.4186 99.0663 63.1951 98.6799 62.8011 98.4034C62.411 98.1269 61.9034 97.9886 61.2784 97.9886C60.839 97.9886 60.4621 98.0549 60.1477 98.1875C59.8333 98.3201 59.5928 98.5 59.4261 98.7273C59.2595 98.9545 59.1742 99.214 59.1705 99.5057C59.1705 99.7481 59.2254 99.9583 59.3352 100.136C59.4489 100.314 59.6023 100.466 59.7955 100.591C59.9886 100.712 60.2027 100.814 60.4375 100.898C60.6723 100.981 60.9091 101.051 61.1477 101.108L62.2386 101.381C62.678 101.483 63.1004 101.621 63.5057 101.795C63.9148 101.97 64.2803 102.189 64.6023 102.455C64.928 102.72 65.1856 103.04 65.375 103.415C65.5644 103.79 65.6591 104.229 65.6591 104.733C65.6591 105.415 65.4848 106.015 65.1364 106.534C64.7879 107.049 64.2841 107.453 63.625 107.744C62.9697 108.032 62.1761 108.176 61.2443 108.176C60.339 108.176 59.553 108.036 58.8864 107.756C58.2235 107.475 57.7045 107.066 57.3295 106.528C56.9583 105.991 56.7576 105.335 56.7273 104.562H58.8011C58.8314 104.968 58.9564 105.305 59.1761 105.574C59.3958 105.843 59.6818 106.044 60.0341 106.176C60.3902 106.309 60.7879 106.375 61.2273 106.375C61.6856 106.375 62.0871 106.307 62.4318 106.17C62.7803 106.03 63.053 105.837 63.25 105.591C63.447 105.341 63.5473 105.049 63.5511 104.716C63.5473 104.413 63.4583 104.163 63.2841 103.966C63.1098 103.765 62.8655 103.598 62.5511 103.466C62.2405 103.33 61.8769 103.208 61.4602 103.102L60.1364 102.761C59.178 102.515 58.4205 102.142 57.8636 101.642C57.3106 101.138 57.0341 100.47 57.0341 99.6364C57.0341 98.9508 57.2197 98.3504 57.5909 97.8352C57.9659 97.3201 58.4754 96.9205 59.1193 96.6364C59.7633 96.3485 60.4924 96.2045 61.3068 96.2045C62.1326 96.2045 62.8561 96.3485 63.4773 96.6364C64.1023 96.9205 64.5928 97.3163 64.9489 97.8239C65.3049 98.3277 65.4886 98.9072 65.5 99.5625H63.4716ZM71.4854 99.2727V100.864H66.4684V99.2727H71.4854ZM67.707 97.1818H69.7638V105.375C69.7638 105.652 69.8055 105.864 69.8888 106.011C69.9759 106.155 70.0896 106.254 70.2297 106.307C70.3699 106.36 70.5252 106.386 70.6956 106.386C70.8244 106.386 70.9418 106.377 71.0479 106.358C71.1577 106.339 71.2411 106.322 71.2979 106.307L71.6445 107.915C71.5346 107.953 71.3774 107.994 71.1729 108.04C70.9721 108.085 70.7259 108.112 70.4343 108.119C69.9191 108.134 69.4551 108.057 69.0422 107.886C68.6293 107.712 68.3017 107.443 68.0593 107.08C67.8206 106.716 67.7032 106.261 67.707 105.716V97.1818ZM76.6555 108.17C75.7805 108.17 75.0248 107.989 74.3884 107.625C73.7558 107.258 73.2691 106.739 72.9282 106.068C72.5873 105.394 72.4168 104.6 72.4168 103.688C72.4168 102.79 72.5873 102.002 72.9282 101.324C73.2729 100.642 73.7539 100.112 74.3714 99.733C74.9888 99.3504 75.7142 99.1591 76.5475 99.1591C77.0854 99.1591 77.593 99.2462 78.0702 99.4205C78.5513 99.5909 78.9755 99.8561 79.343 100.216C79.7142 100.576 80.0058 101.034 80.218 101.591C80.4301 102.144 80.5361 102.803 80.5361 103.568V104.199H73.3827V102.812H78.5645C78.5608 102.419 78.4755 102.068 78.3089 101.761C78.1422 101.451 77.9092 101.206 77.61 101.028C77.3145 100.85 76.9698 100.761 76.5759 100.761C76.1555 100.761 75.7861 100.864 75.468 101.068C75.1498 101.269 74.9017 101.534 74.7236 101.864C74.5494 102.189 74.4604 102.547 74.4566 102.938V104.148C74.4566 104.655 74.5494 105.091 74.735 105.455C74.9206 105.814 75.1801 106.091 75.5134 106.284C75.8467 106.473 76.2369 106.568 76.6839 106.568C76.9831 106.568 77.2539 106.527 77.4964 106.443C77.7388 106.356 77.949 106.229 78.127 106.062C78.3051 105.896 78.4395 105.689 78.5305 105.443L80.4509 105.659C80.3297 106.167 80.0986 106.61 79.7577 106.989C79.4206 107.364 78.9888 107.655 78.4623 107.864C77.9358 108.068 77.3335 108.17 76.6555 108.17ZM81.9562 111.273V99.2727H83.9789V100.716H84.0982C84.2043 100.504 84.3539 100.278 84.5471 100.04C84.7403 99.7973 85.0016 99.5909 85.3312 99.4205C85.6607 99.2462 86.0812 99.1591 86.5926 99.1591C87.2668 99.1591 87.8748 99.3314 88.4164 99.6761C88.9619 100.017 89.3937 100.523 89.7119 101.193C90.0338 101.86 90.1948 102.678 90.1948 103.648C90.1948 104.606 90.0376 105.42 89.7232 106.091C89.4088 106.761 88.9808 107.273 88.4391 107.625C87.8975 107.977 87.2838 108.153 86.5982 108.153C86.0982 108.153 85.6835 108.07 85.3539 107.903C85.0244 107.737 84.7592 107.536 84.5585 107.301C84.3615 107.062 84.2081 106.837 84.0982 106.625H84.013V111.273H81.9562ZM83.9732 103.636C83.9732 104.201 84.0528 104.695 84.2119 105.119C84.3748 105.544 84.6077 105.875 84.9107 106.114C85.2176 106.348 85.5888 106.466 86.0244 106.466C86.4789 106.466 86.8596 106.345 87.1664 106.102C87.4732 105.856 87.7043 105.521 87.8596 105.097C88.0187 104.669 88.0982 104.182 88.0982 103.636C88.0982 103.095 88.0206 102.614 87.8653 102.193C87.71 101.773 87.4789 101.443 87.1721 101.205C86.8653 100.966 86.4827 100.847 86.0244 100.847C85.585 100.847 85.2119 100.962 84.9051 101.193C84.5982 101.424 84.3653 101.748 84.2062 102.165C84.0509 102.581 83.9732 103.072 83.9732 103.636ZM98.5339 101.58L96.6589 101.784C96.6059 101.595 96.5131 101.417 96.3805 101.25C96.2517 101.083 96.0775 100.949 95.8578 100.847C95.6381 100.744 95.3691 100.693 95.051 100.693C94.6229 100.693 94.2631 100.786 93.9714 100.972C93.6835 101.157 93.5415 101.398 93.5453 101.693C93.5415 101.947 93.6343 102.153 93.8237 102.312C94.0169 102.472 94.3351 102.602 94.7782 102.705L96.2669 103.023C97.0926 103.201 97.7063 103.483 98.1078 103.869C98.5131 104.256 98.7176 104.761 98.7214 105.386C98.7176 105.936 98.5566 106.42 98.2385 106.841C97.9241 107.258 97.4866 107.583 96.926 107.818C96.3654 108.053 95.7214 108.17 94.9941 108.17C93.926 108.17 93.0661 107.947 92.4146 107.5C91.7631 107.049 91.3748 106.422 91.2498 105.619L93.2555 105.426C93.3464 105.82 93.5396 106.117 93.8351 106.318C94.1305 106.519 94.515 106.619 94.9885 106.619C95.4771 106.619 95.8691 106.519 96.1646 106.318C96.4638 106.117 96.6135 105.869 96.6135 105.574C96.6135 105.324 96.5169 105.117 96.3237 104.955C96.1343 104.792 95.8388 104.667 95.4373 104.58L93.9487 104.267C93.1116 104.093 92.4923 103.799 92.0907 103.386C91.6892 102.97 91.4904 102.443 91.4941 101.807C91.4904 101.269 91.6362 100.803 91.9316 100.409C92.2309 100.011 92.6457 99.7045 93.176 99.4886C93.7101 99.2689 94.3256 99.1591 95.0226 99.1591C96.0453 99.1591 96.8502 99.3769 97.4373 99.8125C98.0282 100.248 98.3938 100.837 98.5339 101.58ZM114.235 102.182C114.235 103.436 114 104.509 113.53 105.403C113.064 106.294 112.428 106.975 111.621 107.449C110.818 107.922 109.907 108.159 108.888 108.159C107.869 108.159 106.956 107.922 106.15 107.449C105.347 106.972 104.71 106.288 104.241 105.398C103.775 104.504 103.542 103.432 103.542 102.182C103.542 100.928 103.775 99.8561 104.241 98.9659C104.71 98.072 105.347 97.3883 106.15 96.9148C106.956 96.4413 107.869 96.2045 108.888 96.2045C109.907 96.2045 110.818 96.4413 111.621 96.9148C112.428 97.3883 113.064 98.072 113.53 98.9659C114 99.8561 114.235 100.928 114.235 102.182ZM112.116 102.182C112.116 101.299 111.977 100.555 111.701 99.9489C111.428 99.339 111.049 98.8788 110.564 98.5682C110.08 98.2538 109.521 98.0966 108.888 98.0966C108.256 98.0966 107.697 98.2538 107.212 98.5682C106.727 98.8788 106.347 99.339 106.07 99.9489C105.797 100.555 105.661 101.299 105.661 102.182C105.661 103.064 105.797 103.811 106.07 104.42C106.347 105.027 106.727 105.487 107.212 105.801C107.697 106.112 108.256 106.267 108.888 106.267C109.521 106.267 110.08 106.112 110.564 105.801C111.049 105.487 111.428 105.027 111.701 104.42C111.977 103.811 112.116 103.064 112.116 102.182ZM123.612 99.2727L120.504 108H118.232L115.124 99.2727H117.317L119.322 105.756H119.413L121.425 99.2727H123.612ZM128.282 108.17C127.407 108.17 126.652 107.989 126.015 107.625C125.383 107.258 124.896 106.739 124.555 106.068C124.214 105.394 124.044 104.6 124.044 103.688C124.044 102.79 124.214 102.002 124.555 101.324C124.9 100.642 125.381 100.112 125.998 99.733C126.616 99.3504 127.341 99.1591 128.174 99.1591C128.712 99.1591 129.22 99.2462 129.697 99.4205C130.178 99.5909 130.602 99.8561 130.97 100.216C131.341 100.576 131.633 101.034 131.845 101.591C132.057 102.144 132.163 102.803 132.163 103.568V104.199H125.01V102.812H130.191C130.188 102.419 130.102 102.068 129.936 101.761C129.769 101.451 129.536 101.206 129.237 101.028C128.941 100.85 128.597 100.761 128.203 100.761C127.782 100.761 127.413 100.864 127.095 101.068C126.777 101.269 126.529 101.534 126.351 101.864C126.176 102.189 126.087 102.547 126.083 102.938V104.148C126.083 104.655 126.176 105.091 126.362 105.455C126.547 105.814 126.807 106.091 127.14 106.284C127.474 106.473 127.864 106.568 128.311 106.568C128.61 106.568 128.881 106.527 129.123 106.443C129.366 106.356 129.576 106.229 129.754 106.062C129.932 105.896 130.066 105.689 130.157 105.443L132.078 105.659C131.957 106.167 131.726 106.61 131.385 106.989C131.047 107.364 130.616 107.655 130.089 107.864C129.563 108.068 128.96 108.17 128.282 108.17ZM133.583 108V99.2727H135.577V100.727H135.668C135.827 100.223 136.1 99.8352 136.486 99.5625C136.877 99.286 137.322 99.1477 137.822 99.1477C137.935 99.1477 138.062 99.1534 138.202 99.1648C138.346 99.1723 138.466 99.1856 138.56 99.2045V101.097C138.473 101.066 138.335 101.04 138.146 101.017C137.96 100.991 137.78 100.977 137.606 100.977C137.231 100.977 136.894 101.059 136.594 101.222C136.299 101.381 136.066 101.602 135.896 101.886C135.725 102.17 135.64 102.498 135.64 102.869V108H133.583ZM147.668 99.2727L144.56 108H142.287L139.179 99.2727H141.372L143.378 105.756H143.469L145.48 99.2727H147.668ZM148.771 108V99.2727H150.828V108H148.771ZM149.805 98.0341C149.48 98.0341 149.199 97.9261 148.964 97.7102C148.73 97.4905 148.612 97.2273 148.612 96.9205C148.612 96.6098 148.73 96.3466 148.964 96.1307C149.199 95.911 149.48 95.8011 149.805 95.8011C150.135 95.8011 150.415 95.911 150.646 96.1307C150.881 96.3466 150.998 96.6098 150.998 96.9205C150.998 97.2273 150.881 97.4905 150.646 97.7102C150.415 97.9261 150.135 98.0341 149.805 98.0341ZM156.487 108.17C155.612 108.17 154.856 107.989 154.22 107.625C153.587 107.258 153.1 106.739 152.759 106.068C152.419 105.394 152.248 104.6 152.248 103.688C152.248 102.79 152.419 102.002 152.759 101.324C153.104 100.642 153.585 100.112 154.203 99.733C154.82 99.3504 155.545 99.1591 156.379 99.1591C156.917 99.1591 157.424 99.2462 157.901 99.4205C158.383 99.5909 158.807 99.8561 159.174 100.216C159.545 100.576 159.837 101.034 160.049 101.591C160.261 102.144 160.367 102.803 160.367 103.568V104.199H153.214V102.812H158.396C158.392 102.419 158.307 102.068 158.14 101.761C157.973 101.451 157.74 101.206 157.441 101.028C157.146 100.85 156.801 100.761 156.407 100.761C155.987 100.761 155.617 100.864 155.299 101.068C154.981 101.269 154.733 101.534 154.555 101.864C154.381 102.189 154.292 102.547 154.288 102.938V104.148C154.288 104.655 154.381 105.091 154.566 105.455C154.752 105.814 155.011 106.091 155.345 106.284C155.678 106.473 156.068 106.568 156.515 106.568C156.814 106.568 157.085 106.527 157.328 106.443C157.57 106.356 157.78 106.229 157.958 106.062C158.136 105.896 158.271 105.689 158.362 105.443L160.282 105.659C160.161 106.167 159.93 106.61 159.589 106.989C159.252 107.364 158.82 107.655 158.294 107.864C157.767 108.068 157.165 108.17 156.487 108.17ZM163.542 108L161.076 99.2727H163.172L164.706 105.409H164.786L166.354 99.2727H168.428L169.996 105.375H170.081L171.593 99.2727H173.695L171.224 108H169.081L167.445 102.102H167.326L165.689 108H163.542Z" fill="#1E3A8A"/>
<rect x="56" y="134" width="268" height="60" rx="12" fill="#E6F8FB"/>
<rect x="72" y="150" width="28" height="28" rx="14" fill="#06B6D4"/>
<path d="M88.626 168.548V169.5H83.25V168.548H85.399V161.709C85.399 161.504 85.406 161.296 85.42 161.086L83.635 162.619C83.5743 162.67 83.5137 162.703 83.453 162.717C83.3923 162.726 83.3363 162.726 83.285 162.717C83.2337 162.708 83.1847 162.689 83.138 162.661C83.096 162.633 83.0633 162.603 83.04 162.57L82.648 162.031L85.637 159.448H86.652V168.548H88.626Z" fill="white"/>
<path d="M124.848 164.48C125.291 164.48 125.68 164.421 126.016 164.304C126.357 164.187 126.643 164.024 126.872 163.816C127.107 163.603 127.283 163.349 127.4 163.056C127.517 162.763 127.576 162.44 127.576 162.088C127.576 161.357 127.349 160.787 126.896 160.376C126.448 159.965 125.765 159.76 124.848 159.76H123.008V164.48H124.848ZM124.848 158.536C125.573 158.536 126.203 158.621 126.736 158.792C127.275 158.957 127.72 159.195 128.072 159.504C128.424 159.813 128.685 160.187 128.856 160.624C129.032 161.061 129.12 161.549 129.12 162.088C129.12 162.621 129.027 163.109 128.84 163.552C128.653 163.995 128.379 164.376 128.016 164.696C127.659 165.016 127.213 165.267 126.68 165.448C126.152 165.624 125.541 165.712 124.848 165.712H123.008V170H121.464V158.536H124.848ZM134.559 166.352C133.903 166.373 133.343 166.427 132.879 166.512C132.421 166.592 132.045 166.699 131.751 166.832C131.463 166.965 131.253 167.123 131.119 167.304C130.991 167.485 130.927 167.688 130.927 167.912C130.927 168.125 130.962 168.309 131.031 168.464C131.101 168.619 131.194 168.747 131.311 168.848C131.434 168.944 131.575 169.016 131.735 169.064C131.901 169.107 132.077 169.128 132.263 169.128C132.514 169.128 132.743 169.104 132.951 169.056C133.159 169.003 133.354 168.928 133.535 168.832C133.722 168.736 133.898 168.621 134.063 168.488C134.234 168.355 134.399 168.203 134.559 168.032V166.352ZM129.959 163.04C130.407 162.608 130.89 162.285 131.407 162.072C131.925 161.859 132.498 161.752 133.127 161.752C133.581 161.752 133.983 161.827 134.335 161.976C134.687 162.125 134.983 162.333 135.223 162.6C135.463 162.867 135.645 163.189 135.767 163.568C135.89 163.947 135.951 164.363 135.951 164.816V170H135.319C135.181 170 135.074 169.979 134.999 169.936C134.925 169.888 134.866 169.797 134.823 169.664L134.663 168.896C134.45 169.093 134.242 169.269 134.039 169.424C133.837 169.573 133.623 169.701 133.399 169.808C133.175 169.909 132.935 169.987 132.679 170.04C132.429 170.099 132.149 170.128 131.839 170.128C131.525 170.128 131.229 170.085 130.951 170C130.674 169.909 130.431 169.776 130.223 169.6C130.021 169.424 129.858 169.203 129.735 168.936C129.618 168.664 129.559 168.344 129.559 167.976C129.559 167.656 129.647 167.349 129.823 167.056C129.999 166.757 130.285 166.493 130.679 166.264C131.074 166.035 131.589 165.848 132.223 165.704C132.858 165.555 133.637 165.469 134.559 165.448V164.816C134.559 164.187 134.423 163.712 134.151 163.392C133.879 163.067 133.482 162.904 132.959 162.904C132.607 162.904 132.311 162.949 132.071 163.04C131.837 163.125 131.631 163.224 131.455 163.336C131.285 163.443 131.135 163.541 131.007 163.632C130.885 163.717 130.762 163.76 130.639 163.76C130.543 163.76 130.461 163.736 130.391 163.688C130.322 163.635 130.263 163.571 130.215 163.496L129.959 163.04ZM139.153 163.52C139.409 162.965 139.723 162.533 140.097 162.224C140.47 161.909 140.926 161.752 141.465 161.752C141.635 161.752 141.798 161.771 141.953 161.808C142.113 161.845 142.254 161.904 142.377 161.984L142.273 163.048C142.241 163.181 142.161 163.248 142.033 163.248C141.958 163.248 141.849 163.232 141.705 163.2C141.561 163.168 141.398 163.152 141.217 163.152C140.961 163.152 140.731 163.189 140.529 163.264C140.331 163.339 140.153 163.451 139.993 163.6C139.838 163.744 139.697 163.925 139.569 164.144C139.446 164.357 139.334 164.603 139.233 164.88V170H137.801V161.896H138.617C138.771 161.896 138.878 161.925 138.937 161.984C138.995 162.043 139.035 162.144 139.057 162.288L139.153 163.52ZM150.829 170H149.405V163.088H145.229V167.952C145.229 168.293 145.311 168.547 145.477 168.712C145.642 168.877 145.855 168.96 146.117 168.96C146.266 168.96 146.394 168.941 146.501 168.904C146.613 168.861 146.709 168.816 146.789 168.768C146.869 168.72 146.935 168.677 146.989 168.64C147.047 168.597 147.098 168.576 147.141 168.576C147.215 168.576 147.282 168.621 147.341 168.712L147.757 169.392C147.511 169.621 147.215 169.803 146.869 169.936C146.522 170.064 146.165 170.128 145.797 170.128C145.157 170.128 144.663 169.949 144.317 169.592C143.975 169.235 143.805 168.72 143.805 168.048V163.088H142.829C142.743 163.088 142.671 163.064 142.613 163.016C142.554 162.963 142.525 162.883 142.525 162.776V162.208L143.853 162.032L144.181 159.536C144.197 159.456 144.231 159.392 144.285 159.344C144.343 159.291 144.418 159.264 144.509 159.264H145.229V162.056H150.829V170ZM151.181 159.296C151.181 159.435 151.151 159.565 151.093 159.688C151.039 159.805 150.965 159.909 150.869 160C150.778 160.091 150.671 160.163 150.549 160.216C150.426 160.269 150.295 160.296 150.157 160.296C150.018 160.296 149.887 160.269 149.765 160.216C149.647 160.163 149.543 160.091 149.453 160C149.362 159.909 149.29 159.805 149.237 159.688C149.183 159.565 149.157 159.435 149.157 159.296C149.157 159.157 149.183 159.027 149.237 158.904C149.29 158.776 149.362 158.667 149.453 158.576C149.543 158.48 149.647 158.405 149.765 158.352C149.887 158.299 150.018 158.272 150.157 158.272C150.295 158.272 150.426 158.299 150.549 158.352C150.671 158.405 150.778 158.48 150.869 158.576C150.965 158.667 151.039 158.776 151.093 158.904C151.151 159.027 151.181 159.157 151.181 159.296ZM158.272 165.064C158.272 164.733 158.224 164.432 158.128 164.16C158.037 163.883 157.901 163.645 157.72 163.448C157.544 163.245 157.328 163.091 157.072 162.984C156.816 162.872 156.525 162.816 156.2 162.816C155.517 162.816 154.976 163.016 154.576 163.416C154.181 163.811 153.936 164.36 153.84 165.064H158.272ZM159.424 168.864C159.248 169.077 159.037 169.264 158.792 169.424C158.547 169.579 158.283 169.707 158 169.808C157.723 169.909 157.435 169.984 157.136 170.032C156.837 170.085 156.541 170.112 156.248 170.112C155.688 170.112 155.171 170.019 154.696 169.832C154.227 169.64 153.819 169.363 153.472 169C153.131 168.632 152.864 168.179 152.672 167.64C152.48 167.101 152.384 166.483 152.384 165.784C152.384 165.219 152.469 164.691 152.64 164.2C152.816 163.709 153.067 163.285 153.392 162.928C153.717 162.565 154.115 162.283 154.584 162.08C155.053 161.872 155.581 161.768 156.168 161.768C156.653 161.768 157.101 161.851 157.512 162.016C157.928 162.176 158.285 162.411 158.584 162.72C158.888 163.024 159.125 163.403 159.296 163.856C159.467 164.304 159.552 164.816 159.552 165.392C159.552 165.616 159.528 165.765 159.48 165.84C159.432 165.915 159.341 165.952 159.208 165.952H153.792C153.808 166.464 153.877 166.909 154 167.288C154.128 167.667 154.304 167.984 154.528 168.24C154.752 168.491 155.019 168.68 155.328 168.808C155.637 168.931 155.984 168.992 156.368 168.992C156.725 168.992 157.032 168.952 157.288 168.872C157.549 168.787 157.773 168.696 157.96 168.6C158.147 168.504 158.301 168.416 158.424 168.336C158.552 168.251 158.661 168.208 158.752 168.208C158.869 168.208 158.96 168.253 159.024 168.344L159.424 168.864ZM165.701 163.232C165.637 163.349 165.538 163.408 165.405 163.408C165.325 163.408 165.234 163.379 165.133 163.32C165.032 163.261 164.906 163.197 164.757 163.128C164.613 163.053 164.44 162.987 164.237 162.928C164.034 162.864 163.794 162.832 163.517 162.832C163.277 162.832 163.061 162.864 162.869 162.928C162.677 162.987 162.512 163.069 162.373 163.176C162.24 163.283 162.136 163.408 162.061 163.552C161.992 163.691 161.957 163.843 161.957 164.008C161.957 164.216 162.016 164.389 162.133 164.528C162.256 164.667 162.416 164.787 162.613 164.888C162.81 164.989 163.034 165.08 163.285 165.16C163.536 165.235 163.792 165.317 164.053 165.408C164.32 165.493 164.578 165.589 164.829 165.696C165.08 165.803 165.304 165.936 165.501 166.096C165.698 166.256 165.856 166.453 165.973 166.688C166.096 166.917 166.157 167.195 166.157 167.52C166.157 167.893 166.09 168.24 165.957 168.56C165.824 168.875 165.626 169.149 165.365 169.384C165.104 169.613 164.784 169.795 164.405 169.928C164.026 170.061 163.589 170.128 163.093 170.128C162.528 170.128 162.016 170.037 161.557 169.856C161.098 169.669 160.709 169.432 160.389 169.144L160.725 168.6C160.768 168.531 160.818 168.477 160.877 168.44C160.936 168.403 161.01 168.384 161.101 168.384C161.197 168.384 161.298 168.421 161.405 168.496C161.512 168.571 161.64 168.653 161.789 168.744C161.944 168.835 162.13 168.917 162.349 168.992C162.568 169.067 162.84 169.104 163.165 169.104C163.442 169.104 163.685 169.069 163.893 169C164.101 168.925 164.274 168.827 164.413 168.704C164.552 168.581 164.653 168.44 164.717 168.28C164.786 168.12 164.821 167.949 164.821 167.768C164.821 167.544 164.76 167.36 164.637 167.216C164.52 167.067 164.362 166.941 164.165 166.84C163.968 166.733 163.741 166.643 163.485 166.568C163.234 166.488 162.976 166.405 162.709 166.32C162.448 166.235 162.189 166.139 161.933 166.032C161.682 165.92 161.458 165.781 161.261 165.616C161.064 165.451 160.904 165.248 160.781 165.008C160.664 164.763 160.605 164.467 160.605 164.12C160.605 163.811 160.669 163.515 160.797 163.232C160.925 162.944 161.112 162.693 161.357 162.48C161.602 162.261 161.904 162.088 162.261 161.96C162.618 161.832 163.026 161.768 163.485 161.768C164.018 161.768 164.496 161.853 164.917 162.024C165.344 162.189 165.712 162.419 166.021 162.712L165.701 163.232ZM173.245 170H171.693V158.536H173.245V170ZM176.74 163.072C176.916 162.875 177.103 162.696 177.3 162.536C177.497 162.376 177.705 162.24 177.924 162.128C178.148 162.011 178.383 161.923 178.628 161.864C178.879 161.8 179.148 161.768 179.436 161.768C179.879 161.768 180.268 161.843 180.604 161.992C180.945 162.136 181.228 162.344 181.452 162.616C181.681 162.883 181.855 163.205 181.972 163.584C182.089 163.963 182.148 164.381 182.148 164.84V170H180.716V164.84C180.716 164.227 180.575 163.752 180.292 163.416C180.015 163.075 179.591 162.904 179.02 162.904C178.599 162.904 178.204 163.005 177.836 163.208C177.473 163.411 177.137 163.685 176.828 164.032V170H175.396V161.896H176.252C176.455 161.896 176.58 161.995 176.628 162.192L176.74 163.072ZM184.401 170V163.112L183.505 163.008C183.393 162.981 183.3 162.941 183.225 162.888C183.156 162.829 183.121 162.747 183.121 162.64V162.056H184.401V161.272C184.401 160.808 184.465 160.397 184.593 160.04C184.726 159.677 184.913 159.373 185.153 159.128C185.398 158.877 185.692 158.688 186.033 158.56C186.374 158.432 186.758 158.368 187.185 158.368C187.548 158.368 187.881 158.421 188.185 158.528L188.153 159.24C188.142 159.368 188.07 159.437 187.937 159.448C187.809 159.459 187.636 159.464 187.417 159.464C187.172 159.464 186.948 159.496 186.745 159.56C186.548 159.624 186.377 159.728 186.233 159.872C186.089 160.016 185.977 160.205 185.897 160.44C185.822 160.675 185.785 160.965 185.785 161.312V162.056H188.121V163.088H185.833V170H184.401ZM192.313 161.768C192.905 161.768 193.438 161.867 193.913 162.064C194.387 162.261 194.793 162.541 195.129 162.904C195.465 163.267 195.721 163.707 195.897 164.224C196.078 164.736 196.169 165.309 196.169 165.944C196.169 166.584 196.078 167.16 195.897 167.672C195.721 168.184 195.465 168.621 195.129 168.984C194.793 169.347 194.387 169.627 193.913 169.824C193.438 170.016 192.905 170.112 192.313 170.112C191.715 170.112 191.177 170.016 190.697 169.824C190.222 169.627 189.817 169.347 189.481 168.984C189.145 168.621 188.886 168.184 188.705 167.672C188.529 167.16 188.441 166.584 188.441 165.944C188.441 165.309 188.529 164.736 188.705 164.224C188.886 163.707 189.145 163.267 189.481 162.904C189.817 162.541 190.222 162.261 190.697 162.064C191.177 161.867 191.715 161.768 192.313 161.768ZM192.313 169C193.113 169 193.71 168.733 194.105 168.2C194.499 167.661 194.697 166.912 194.697 165.952C194.697 164.987 194.499 164.235 194.105 163.696C193.71 163.157 193.113 162.888 192.313 162.888C191.907 162.888 191.553 162.957 191.249 163.096C190.95 163.235 190.699 163.435 190.497 163.696C190.299 163.957 190.15 164.28 190.049 164.664C189.953 165.043 189.905 165.472 189.905 165.952C189.905 166.912 190.102 167.661 190.497 168.2C190.897 168.733 191.502 169 192.313 169ZM199.007 163.52C199.263 162.965 199.578 162.533 199.951 162.224C200.324 161.909 200.78 161.752 201.319 161.752C201.49 161.752 201.652 161.771 201.807 161.808C201.967 161.845 202.108 161.904 202.231 161.984L202.127 163.048C202.095 163.181 202.015 163.248 201.887 163.248C201.812 163.248 201.703 163.232 201.559 163.2C201.415 163.168 201.252 163.152 201.071 163.152C200.815 163.152 200.586 163.189 200.383 163.264C200.186 163.339 200.007 163.451 199.847 163.6C199.692 163.744 199.551 163.925 199.423 164.144C199.3 164.357 199.188 164.603 199.087 164.88V170H197.655V161.896H198.471C198.626 161.896 198.732 161.925 198.791 161.984C198.85 162.043 198.89 162.144 198.911 162.288L199.007 163.52ZM203.163 170V161.896H204.019C204.222 161.896 204.347 161.995 204.395 162.192L204.499 163.024C204.798 162.656 205.134 162.355 205.507 162.12C205.88 161.885 206.312 161.768 206.803 161.768C207.347 161.768 207.787 161.92 208.123 162.224C208.464 162.528 208.71 162.939 208.859 163.456C208.976 163.163 209.126 162.909 209.307 162.696C209.494 162.483 209.702 162.307 209.931 162.168C210.16 162.029 210.403 161.928 210.659 161.864C210.92 161.8 211.184 161.768 211.451 161.768C211.878 161.768 212.256 161.837 212.587 161.976C212.923 162.109 213.206 162.307 213.435 162.568C213.67 162.829 213.848 163.152 213.971 163.536C214.094 163.915 214.155 164.349 214.155 164.84V170H212.723V164.84C212.723 164.205 212.584 163.725 212.307 163.4C212.03 163.069 211.63 162.904 211.107 162.904C210.872 162.904 210.648 162.947 210.435 163.032C210.227 163.112 210.043 163.232 209.883 163.392C209.723 163.552 209.595 163.755 209.499 164C209.408 164.24 209.363 164.52 209.363 164.84V170H207.931V164.84C207.931 164.189 207.8 163.704 207.539 163.384C207.278 163.064 206.896 162.904 206.395 162.904C206.043 162.904 205.718 163 205.419 163.192C205.12 163.379 204.846 163.635 204.595 163.96V170H203.163ZM220.391 166.352C219.735 166.373 219.175 166.427 218.711 166.512C218.253 166.592 217.877 166.699 217.583 166.832C217.295 166.965 217.085 167.123 216.951 167.304C216.823 167.485 216.759 167.688 216.759 167.912C216.759 168.125 216.794 168.309 216.863 168.464C216.933 168.619 217.026 168.747 217.143 168.848C217.266 168.944 217.407 169.016 217.567 169.064C217.733 169.107 217.909 169.128 218.095 169.128C218.346 169.128 218.575 169.104 218.783 169.056C218.991 169.003 219.186 168.928 219.367 168.832C219.554 168.736 219.73 168.621 219.895 168.488C220.066 168.355 220.231 168.203 220.391 168.032V166.352ZM215.791 163.04C216.239 162.608 216.722 162.285 217.239 162.072C217.757 161.859 218.33 161.752 218.959 161.752C219.413 161.752 219.815 161.827 220.167 161.976C220.519 162.125 220.815 162.333 221.055 162.6C221.295 162.867 221.477 163.189 221.599 163.568C221.722 163.947 221.783 164.363 221.783 164.816V170H221.151C221.013 170 220.906 169.979 220.831 169.936C220.757 169.888 220.698 169.797 220.655 169.664L220.495 168.896C220.282 169.093 220.074 169.269 219.871 169.424C219.669 169.573 219.455 169.701 219.231 169.808C219.007 169.909 218.767 169.987 218.511 170.04C218.261 170.099 217.981 170.128 217.671 170.128C217.357 170.128 217.061 170.085 216.783 170C216.506 169.909 216.263 169.776 216.055 169.6C215.853 169.424 215.69 169.203 215.567 168.936C215.45 168.664 215.391 168.344 215.391 167.976C215.391 167.656 215.479 167.349 215.655 167.056C215.831 166.757 216.117 166.493 216.511 166.264C216.906 166.035 217.421 165.848 218.055 165.704C218.69 165.555 219.469 165.469 220.391 165.448V164.816C220.391 164.187 220.255 163.712 219.983 163.392C219.711 163.067 219.314 162.904 218.791 162.904C218.439 162.904 218.143 162.949 217.903 163.04C217.669 163.125 217.463 163.224 217.287 163.336C217.117 163.443 216.967 163.541 216.839 163.632C216.717 163.717 216.594 163.76 216.471 163.76C216.375 163.76 216.293 163.736 216.223 163.688C216.154 163.635 216.095 163.571 216.047 163.496L215.791 163.04ZM231.043 170H229.619V163.088H225.443V167.952C225.443 168.293 225.526 168.547 225.691 168.712C225.856 168.877 226.07 168.96 226.331 168.96C226.48 168.96 226.608 168.941 226.715 168.904C226.827 168.861 226.923 168.816 227.003 168.768C227.083 168.72 227.15 168.677 227.203 168.64C227.262 168.597 227.312 168.576 227.355 168.576C227.43 168.576 227.496 168.621 227.555 168.712L227.971 169.392C227.726 169.621 227.43 169.803 227.083 169.936C226.736 170.064 226.379 170.128 226.011 170.128C225.371 170.128 224.878 169.949 224.531 169.592C224.19 169.235 224.019 168.72 224.019 168.048V163.088H223.043C222.958 163.088 222.886 163.064 222.827 163.016C222.768 162.963 222.739 162.883 222.739 162.776V162.208L224.067 162.032L224.395 159.536C224.411 159.456 224.446 159.392 224.499 159.344C224.558 159.291 224.632 159.264 224.723 159.264H225.443V162.056H231.043V170ZM231.395 159.296C231.395 159.435 231.366 159.565 231.307 159.688C231.254 159.805 231.179 159.909 231.083 160C230.992 160.091 230.886 160.163 230.763 160.216C230.64 160.269 230.51 160.296 230.371 160.296C230.232 160.296 230.102 160.269 229.979 160.216C229.862 160.163 229.758 160.091 229.667 160C229.576 159.909 229.504 159.805 229.451 159.688C229.398 159.565 229.371 159.435 229.371 159.296C229.371 159.157 229.398 159.027 229.451 158.904C229.504 158.776 229.576 158.667 229.667 158.576C229.758 158.48 229.862 158.405 229.979 158.352C230.102 158.299 230.232 158.272 230.371 158.272C230.51 158.272 230.64 158.299 230.763 158.352C230.886 158.405 230.992 158.48 231.083 158.576C231.179 158.667 231.254 158.776 231.307 158.904C231.366 159.027 231.395 159.157 231.395 159.296ZM236.478 161.768C237.07 161.768 237.604 161.867 238.078 162.064C238.553 162.261 238.958 162.541 239.294 162.904C239.63 163.267 239.886 163.707 240.062 164.224C240.244 164.736 240.334 165.309 240.334 165.944C240.334 166.584 240.244 167.16 240.062 167.672C239.886 168.184 239.63 168.621 239.294 168.984C238.958 169.347 238.553 169.627 238.078 169.824C237.604 170.016 237.07 170.112 236.478 170.112C235.881 170.112 235.342 170.016 234.862 169.824C234.388 169.627 233.982 169.347 233.646 168.984C233.31 168.621 233.052 168.184 232.87 167.672C232.694 167.16 232.606 166.584 232.606 165.944C232.606 165.309 232.694 164.736 232.87 164.224C233.052 163.707 233.31 163.267 233.646 162.904C233.982 162.541 234.388 162.261 234.862 162.064C235.342 161.867 235.881 161.768 236.478 161.768ZM236.478 169C237.278 169 237.876 168.733 238.27 168.2C238.665 167.661 238.862 166.912 238.862 165.952C238.862 164.987 238.665 164.235 238.27 163.696C237.876 163.157 237.278 162.888 236.478 162.888C236.073 162.888 235.718 162.957 235.414 163.096C235.116 163.235 234.865 163.435 234.662 163.696C234.465 163.957 234.316 164.28 234.214 164.664C234.118 165.043 234.07 165.472 234.07 165.952C234.07 166.912 234.268 167.661 234.662 168.2C235.062 168.733 235.668 169 236.478 169ZM243.164 163.072C243.34 162.875 243.527 162.696 243.724 162.536C243.922 162.376 244.13 162.24 244.348 162.128C244.572 162.011 244.807 161.923 245.052 161.864C245.303 161.8 245.572 161.768 245.86 161.768C246.303 161.768 246.692 161.843 247.028 161.992C247.37 162.136 247.652 162.344 247.876 162.616C248.106 162.883 248.279 163.205 248.396 163.584C248.514 163.963 248.572 164.381 248.572 164.84V170H247.14V164.84C247.14 164.227 246.999 163.752 246.716 163.416C246.439 163.075 246.015 162.904 245.444 162.904C245.023 162.904 244.628 163.005 244.26 163.208C243.898 163.411 243.562 163.685 243.252 164.032V170H241.82V161.896H242.676C242.879 161.896 243.004 161.995 243.052 162.192L243.164 163.072Z" fill="#1E3A8A"/>
<rect x="56" y="204" width="268" height="60" rx="12" fill="#E6F8FB"/>
<rect x="72" y="220" width="28" height="28" rx="14" fill="#06B6D4"/>
<path d="M88.409 238.317C88.5443 238.317 88.6517 238.357 88.731 238.436C88.8103 238.515 88.85 238.618 88.85 238.744V239.5H82.158V239.073C82.158 238.984 82.1767 238.893 82.214 238.8C82.2513 238.707 82.3097 238.62 82.389 238.541L85.602 235.314C85.868 235.043 86.1107 234.784 86.33 234.537C86.5493 234.285 86.736 234.033 86.89 233.781C87.044 233.529 87.163 233.275 87.247 233.018C87.331 232.757 87.373 232.479 87.373 232.185C87.373 231.891 87.3263 231.634 87.233 231.415C87.1397 231.191 87.0113 231.007 86.848 230.862C86.6893 230.717 86.5003 230.61 86.281 230.54C86.0617 230.465 85.826 230.428 85.574 230.428C85.3173 230.428 85.0817 230.465 84.867 230.54C84.6523 230.615 84.461 230.72 84.293 230.855C84.1297 230.986 83.992 231.142 83.88 231.324C83.768 231.506 83.6887 231.707 83.642 231.926C83.586 232.089 83.509 232.199 83.411 232.255C83.3177 232.306 83.1847 232.32 83.012 232.297L82.361 232.185C82.4263 231.728 82.5523 231.324 82.739 230.974C82.9303 230.619 83.1683 230.323 83.453 230.085C83.7423 229.847 84.0713 229.667 84.44 229.546C84.8087 229.42 85.2077 229.357 85.637 229.357C86.0617 229.357 86.4583 229.42 86.827 229.546C87.1957 229.672 87.5153 229.856 87.786 230.099C88.0567 230.337 88.269 230.629 88.423 230.974C88.577 231.319 88.654 231.711 88.654 232.15C88.654 232.523 88.598 232.871 88.486 233.193C88.374 233.51 88.2223 233.814 88.031 234.103C87.8397 234.392 87.618 234.675 87.366 234.95C87.1187 235.225 86.855 235.503 86.575 235.783L83.929 238.485C84.1157 238.434 84.3047 238.394 84.496 238.366C84.6873 238.333 84.8717 238.317 85.049 238.317H88.409Z" fill="white"/>
<path d="M127.552 235.744L125.752 231.08C125.699 230.941 125.643 230.781 125.584 230.6C125.525 230.413 125.469 230.216 125.416 230.008C125.304 230.44 125.189 230.8 125.072 231.088L123.272 235.744H127.552ZM130.784 240H129.584C129.445 240 129.333 239.965 129.248 239.896C129.163 239.827 129.099 239.739 129.056 239.632L127.984 236.864H122.84L121.768 239.632C121.736 239.728 121.675 239.813 121.584 239.888C121.493 239.963 121.381 240 121.248 240H120.048L124.632 228.536H126.2L130.784 240ZM134.46 236.04C134.748 236.04 135.001 236 135.22 235.92C135.439 235.84 135.623 235.728 135.772 235.584C135.921 235.44 136.033 235.269 136.108 235.072C136.183 234.869 136.22 234.648 136.22 234.408C136.22 233.912 136.068 233.517 135.764 233.224C135.465 232.931 135.031 232.784 134.46 232.784C133.884 232.784 133.444 232.931 133.14 233.224C132.841 233.517 132.692 233.912 132.692 234.408C132.692 234.648 132.729 234.869 132.804 235.072C132.884 235.269 132.999 235.44 133.148 235.584C133.297 235.728 133.481 235.84 133.7 235.92C133.919 236 134.172 236.04 134.46 236.04ZM137.028 240.44C137.028 240.243 136.972 240.083 136.86 239.96C136.748 239.837 136.596 239.741 136.404 239.672C136.217 239.603 135.999 239.555 135.748 239.528C135.497 239.496 135.231 239.472 134.948 239.456C134.671 239.44 134.388 239.424 134.1 239.408C133.812 239.392 133.535 239.365 133.268 239.328C132.969 239.467 132.724 239.643 132.532 239.856C132.345 240.064 132.252 240.309 132.252 240.592C132.252 240.773 132.297 240.941 132.388 241.096C132.484 241.256 132.628 241.392 132.82 241.504C133.012 241.621 133.252 241.712 133.54 241.776C133.833 241.845 134.177 241.88 134.572 241.88C134.956 241.88 135.3 241.845 135.604 241.776C135.908 241.707 136.164 241.608 136.372 241.48C136.585 241.352 136.748 241.2 136.86 241.024C136.972 240.848 137.028 240.653 137.028 240.44ZM138.476 232.216V232.744C138.476 232.92 138.364 233.032 138.14 233.08L137.22 233.2C137.401 233.552 137.492 233.941 137.492 234.368C137.492 234.763 137.415 235.123 137.26 235.448C137.111 235.768 136.903 236.043 136.636 236.272C136.369 236.501 136.049 236.677 135.676 236.8C135.303 236.923 134.897 236.984 134.46 236.984C134.081 236.984 133.724 236.939 133.388 236.848C133.217 236.955 133.087 237.069 132.996 237.192C132.905 237.309 132.86 237.429 132.86 237.552C132.86 237.744 132.937 237.891 133.092 237.992C133.252 238.088 133.46 238.157 133.716 238.2C133.972 238.243 134.263 238.269 134.588 238.28C134.919 238.291 135.255 238.309 135.596 238.336C135.943 238.357 136.279 238.397 136.604 238.456C136.935 238.515 137.228 238.611 137.484 238.744C137.74 238.877 137.945 239.061 138.1 239.296C138.26 239.531 138.34 239.835 138.34 240.208C138.34 240.555 138.252 240.891 138.076 241.216C137.905 241.541 137.657 241.829 137.332 242.08C137.007 242.336 136.607 242.539 136.132 242.688C135.663 242.843 135.132 242.92 134.54 242.92C133.948 242.92 133.431 242.861 132.988 242.744C132.545 242.627 132.177 242.469 131.884 242.272C131.591 242.075 131.369 241.845 131.22 241.584C131.076 241.328 131.004 241.059 131.004 240.776C131.004 240.376 131.129 240.037 131.38 239.76C131.631 239.483 131.975 239.261 132.412 239.096C132.172 238.989 131.98 238.848 131.836 238.672C131.697 238.491 131.628 238.248 131.628 237.944C131.628 237.827 131.649 237.707 131.692 237.584C131.735 237.456 131.799 237.331 131.884 237.208C131.975 237.08 132.084 236.96 132.212 236.848C132.34 236.736 132.489 236.637 132.66 236.552C132.26 236.328 131.948 236.032 131.724 235.664C131.5 235.291 131.388 234.859 131.388 234.368C131.388 233.973 131.463 233.616 131.612 233.296C131.767 232.971 131.98 232.696 132.252 232.472C132.524 232.243 132.847 232.067 133.22 231.944C133.599 231.821 134.012 231.76 134.46 231.76C134.812 231.76 135.14 231.8 135.444 231.88C135.748 231.955 136.025 232.067 136.276 232.216H138.476ZM140.981 233.52C141.237 232.965 141.551 232.533 141.925 232.224C142.298 231.909 142.754 231.752 143.293 231.752C143.463 231.752 143.626 231.771 143.781 231.808C143.941 231.845 144.082 231.904 144.205 231.984L144.101 233.048C144.069 233.181 143.989 233.248 143.861 233.248C143.786 233.248 143.677 233.232 143.533 233.2C143.389 233.168 143.226 233.152 143.045 233.152C142.789 233.152 142.559 233.189 142.357 233.264C142.159 233.339 141.981 233.451 141.821 233.6C141.666 233.744 141.525 233.925 141.397 234.144C141.274 234.357 141.162 234.603 141.061 234.88V240H139.629V231.896H140.445C140.599 231.896 140.706 231.925 140.765 231.984C140.823 232.043 140.863 232.144 140.885 232.288L140.981 233.52ZM150.233 235.064C150.233 234.733 150.185 234.432 150.089 234.16C149.998 233.883 149.862 233.645 149.681 233.448C149.505 233.245 149.289 233.091 149.033 232.984C148.777 232.872 148.486 232.816 148.161 232.816C147.478 232.816 146.937 233.016 146.537 233.416C146.142 233.811 145.897 234.36 145.801 235.064H150.233ZM151.385 238.864C151.209 239.077 150.998 239.264 150.753 239.424C150.507 239.579 150.243 239.707 149.961 239.808C149.683 239.909 149.395 239.984 149.097 240.032C148.798 240.085 148.502 240.112 148.209 240.112C147.649 240.112 147.131 240.019 146.657 239.832C146.187 239.64 145.779 239.363 145.433 239C145.091 238.632 144.825 238.179 144.633 237.64C144.441 237.101 144.345 236.483 144.345 235.784C144.345 235.219 144.43 234.691 144.601 234.2C144.777 233.709 145.027 233.285 145.353 232.928C145.678 232.565 146.075 232.283 146.545 232.08C147.014 231.872 147.542 231.768 148.129 231.768C148.614 231.768 149.062 231.851 149.473 232.016C149.889 232.176 150.246 232.411 150.545 232.72C150.849 233.024 151.086 233.403 151.257 233.856C151.427 234.304 151.513 234.816 151.513 235.392C151.513 235.616 151.489 235.765 151.441 235.84C151.393 235.915 151.302 235.952 151.169 235.952H145.753C145.769 236.464 145.838 236.909 145.961 237.288C146.089 237.667 146.265 237.984 146.489 238.24C146.713 238.491 146.979 238.68 147.289 238.808C147.598 238.931 147.945 238.992 148.329 238.992C148.686 238.992 148.993 238.952 149.249 238.872C149.51 238.787 149.734 238.696 149.921 238.6C150.107 238.504 150.262 238.416 150.385 238.336C150.513 238.251 150.622 238.208 150.713 238.208C150.83 238.208 150.921 238.253 150.985 238.344L151.385 238.864ZM158.366 235.064C158.366 234.733 158.318 234.432 158.222 234.16C158.131 233.883 157.995 233.645 157.814 233.448C157.638 233.245 157.422 233.091 157.166 232.984C156.91 232.872 156.619 232.816 156.294 232.816C155.611 232.816 155.07 233.016 154.67 233.416C154.275 233.811 154.03 234.36 153.934 235.064H158.366ZM159.518 238.864C159.342 239.077 159.131 239.264 158.886 239.424C158.64 239.579 158.376 239.707 158.094 239.808C157.816 239.909 157.528 239.984 157.23 240.032C156.931 240.085 156.635 240.112 156.342 240.112C155.782 240.112 155.264 240.019 154.79 239.832C154.32 239.64 153.912 239.363 153.566 239C153.224 238.632 152.958 238.179 152.766 237.64C152.574 237.101 152.478 236.483 152.478 235.784C152.478 235.219 152.563 234.691 152.734 234.2C152.91 233.709 153.16 233.285 153.486 232.928C153.811 232.565 154.208 232.283 154.678 232.08C155.147 231.872 155.675 231.768 156.262 231.768C156.747 231.768 157.195 231.851 157.606 232.016C158.022 232.176 158.379 232.411 158.678 232.72C158.982 233.024 159.219 233.403 159.39 233.856C159.56 234.304 159.646 234.816 159.646 235.392C159.646 235.616 159.622 235.765 159.574 235.84C159.526 235.915 159.435 235.952 159.302 235.952H153.886C153.902 236.464 153.971 236.909 154.094 237.288C154.222 237.667 154.398 237.984 154.622 238.24C154.846 238.491 155.112 238.68 155.422 238.808C155.731 238.931 156.078 238.992 156.462 238.992C156.819 238.992 157.126 238.952 157.382 238.872C157.643 238.787 157.867 238.696 158.054 238.6C158.24 238.504 158.395 238.416 158.518 238.336C158.646 238.251 158.755 238.208 158.846 238.208C158.963 238.208 159.054 238.253 159.118 238.344L159.518 238.864ZM161.075 240V231.896H161.931C162.134 231.896 162.259 231.995 162.307 232.192L162.411 233.024C162.71 232.656 163.046 232.355 163.419 232.12C163.792 231.885 164.224 231.768 164.715 231.768C165.259 231.768 165.699 231.92 166.035 232.224C166.376 232.528 166.622 232.939 166.771 233.456C166.888 233.163 167.038 232.909 167.219 232.696C167.406 232.483 167.614 232.307 167.843 232.168C168.072 232.029 168.315 231.928 168.571 231.864C168.832 231.8 169.096 231.768 169.363 231.768C169.79 231.768 170.168 231.837 170.499 231.976C170.835 232.109 171.118 232.307 171.347 232.568C171.582 232.829 171.76 233.152 171.883 233.536C172.006 233.915 172.067 234.349 172.067 234.84V240H170.635V234.84C170.635 234.205 170.496 233.725 170.219 233.4C169.942 233.069 169.542 232.904 169.019 232.904C168.784 232.904 168.56 232.947 168.347 233.032C168.139 233.112 167.955 233.232 167.795 233.392C167.635 233.552 167.507 233.755 167.411 234C167.32 234.24 167.275 234.52 167.275 234.84V240H165.843V234.84C165.843 234.189 165.712 233.704 165.451 233.384C165.19 233.064 164.808 232.904 164.307 232.904C163.955 232.904 163.63 233 163.331 233.192C163.032 233.379 162.758 233.635 162.507 233.96V240H161.075ZM179.335 235.064C179.335 234.733 179.287 234.432 179.191 234.16C179.1 233.883 178.964 233.645 178.783 233.448C178.607 233.245 178.391 233.091 178.135 232.984C177.879 232.872 177.588 232.816 177.263 232.816C176.58 232.816 176.039 233.016 175.639 233.416C175.244 233.811 174.999 234.36 174.903 235.064H179.335ZM180.487 238.864C180.311 239.077 180.1 239.264 179.855 239.424C179.61 239.579 179.346 239.707 179.063 239.808C178.786 239.909 178.498 239.984 178.199 240.032C177.9 240.085 177.604 240.112 177.311 240.112C176.751 240.112 176.234 240.019 175.759 239.832C175.29 239.64 174.882 239.363 174.535 239C174.194 238.632 173.927 238.179 173.735 237.64C173.543 237.101 173.447 236.483 173.447 235.784C173.447 235.219 173.532 234.691 173.703 234.2C173.879 233.709 174.13 233.285 174.455 232.928C174.78 232.565 175.178 232.283 175.647 232.08C176.116 231.872 176.644 231.768 177.231 231.768C177.716 231.768 178.164 231.851 178.575 232.016C178.991 232.176 179.348 232.411 179.647 232.72C179.951 233.024 180.188 233.403 180.359 233.856C180.53 234.304 180.615 234.816 180.615 235.392C180.615 235.616 180.591 235.765 180.543 235.84C180.495 235.915 180.404 235.952 180.271 235.952H174.855C174.871 236.464 174.94 236.909 175.063 237.288C175.191 237.667 175.367 237.984 175.591 238.24C175.815 238.491 176.082 238.68 176.391 238.808C176.7 238.931 177.047 238.992 177.431 238.992C177.788 238.992 178.095 238.952 178.351 238.872C178.612 238.787 178.836 238.696 179.023 238.6C179.21 238.504 179.364 238.416 179.487 238.336C179.615 238.251 179.724 238.208 179.815 238.208C179.932 238.208 180.023 238.253 180.087 238.344L180.487 238.864ZM183.388 233.072C183.564 232.875 183.751 232.696 183.948 232.536C184.146 232.376 184.354 232.24 184.572 232.128C184.796 232.011 185.031 231.923 185.276 231.864C185.527 231.8 185.796 231.768 186.084 231.768C186.527 231.768 186.916 231.843 187.252 231.992C187.594 232.136 187.876 232.344 188.1 232.616C188.33 232.883 188.503 233.205 188.62 233.584C188.738 233.963 188.796 234.381 188.796 234.84V240H187.364V234.84C187.364 234.227 187.223 233.752 186.94 233.416C186.663 233.075 186.239 232.904 185.668 232.904C185.247 232.904 184.852 233.005 184.484 233.208C184.122 233.411 183.786 233.685 183.476 234.032V240H182.044V231.896H182.9C183.103 231.896 183.228 231.995 183.276 232.192L183.388 233.072ZM193.025 240.128C192.385 240.128 191.891 239.949 191.545 239.592C191.203 239.235 191.033 238.72 191.033 238.048V233.088H190.057C189.971 233.088 189.899 233.064 189.841 233.016C189.782 232.963 189.753 232.883 189.753 232.776V232.208L191.081 232.04L191.409 229.536C191.425 229.456 191.459 229.392 191.513 229.344C191.571 229.291 191.646 229.264 191.737 229.264H192.457V232.056H194.801V233.088H192.457V237.952C192.457 238.293 192.539 238.547 192.705 238.712C192.87 238.877 193.083 238.96 193.345 238.96C193.494 238.96 193.622 238.941 193.729 238.904C193.841 238.861 193.937 238.816 194.017 238.768C194.097 238.72 194.163 238.677 194.217 238.64C194.275 238.597 194.326 238.576 194.369 238.576C194.443 238.576 194.51 238.621 194.569 238.712L194.985 239.392C194.739 239.621 194.443 239.803 194.097 239.936C193.75 240.064 193.393 240.128 193.025 240.128ZM203.445 234.48C203.888 234.48 204.277 234.421 204.613 234.304C204.954 234.187 205.24 234.024 205.469 233.816C205.704 233.603 205.88 233.349 205.997 233.056C206.114 232.763 206.173 232.44 206.173 232.088C206.173 231.357 205.946 230.787 205.493 230.376C205.045 229.965 204.362 229.76 203.445 229.76H201.605V234.48H203.445ZM203.445 228.536C204.17 228.536 204.8 228.621 205.333 228.792C205.872 228.957 206.317 229.195 206.669 229.504C207.021 229.813 207.282 230.187 207.453 230.624C207.629 231.061 207.717 231.549 207.717 232.088C207.717 232.621 207.624 233.109 207.437 233.552C207.25 233.995 206.976 234.376 206.613 234.696C206.256 235.016 205.81 235.267 205.277 235.448C204.749 235.624 204.138 235.712 203.445 235.712H201.605V240H200.061V228.536H203.445ZM215.6 231.896V240H214.752C214.549 240 214.421 239.901 214.368 239.704L214.256 238.832C213.904 239.221 213.509 239.536 213.072 239.776C212.635 240.011 212.133 240.128 211.568 240.128C211.125 240.128 210.733 240.056 210.392 239.912C210.056 239.763 209.773 239.555 209.544 239.288C209.315 239.021 209.141 238.699 209.024 238.32C208.912 237.941 208.856 237.523 208.856 237.064V231.896H210.28V237.064C210.28 237.677 210.419 238.152 210.696 238.488C210.979 238.824 211.408 238.992 211.984 238.992C212.405 238.992 212.797 238.893 213.16 238.696C213.528 238.493 213.867 238.216 214.176 237.864V231.896H215.6ZM218.89 233.52C219.146 232.965 219.461 232.533 219.834 232.224C220.207 231.909 220.663 231.752 221.202 231.752C221.373 231.752 221.535 231.771 221.69 231.808C221.85 231.845 221.991 231.904 222.114 231.984L222.01 233.048C221.978 233.181 221.898 233.248 221.77 233.248C221.695 233.248 221.586 233.232 221.442 233.2C221.298 233.168 221.135 233.152 220.954 233.152C220.698 233.152 220.469 233.189 220.266 233.264C220.069 233.339 219.89 233.451 219.73 233.6C219.575 233.744 219.434 233.925 219.306 234.144C219.183 234.357 219.071 234.603 218.97 234.88V240H217.538V231.896H218.354C218.509 231.896 218.615 231.925 218.674 231.984C218.733 232.043 218.773 232.144 218.794 232.288L218.89 233.52ZM224.478 238.048C224.739 238.4 225.025 238.648 225.334 238.792C225.643 238.936 225.99 239.008 226.374 239.008C227.131 239.008 227.713 238.739 228.118 238.2C228.523 237.661 228.726 236.893 228.726 235.896C228.726 235.368 228.678 234.915 228.582 234.536C228.491 234.157 228.358 233.848 228.182 233.608C228.006 233.363 227.79 233.184 227.534 233.072C227.278 232.96 226.987 232.904 226.662 232.904C226.198 232.904 225.79 233.011 225.438 233.224C225.091 233.437 224.771 233.739 224.478 234.128V238.048ZM224.406 233.152C224.747 232.731 225.142 232.392 225.59 232.136C226.038 231.88 226.55 231.752 227.126 231.752C227.595 231.752 228.019 231.843 228.398 232.024C228.777 232.2 229.099 232.464 229.366 232.816C229.633 233.163 229.838 233.595 229.982 234.112C230.126 234.629 230.198 235.224 230.198 235.896C230.198 236.493 230.118 237.051 229.958 237.568C229.798 238.08 229.566 238.525 229.262 238.904C228.963 239.277 228.595 239.573 228.158 239.792C227.726 240.005 227.238 240.112 226.694 240.112C226.198 240.112 225.771 240.029 225.414 239.864C225.062 239.693 224.75 239.459 224.478 239.16V242.744H223.046V231.896H223.902C224.105 231.896 224.23 231.995 224.278 232.192L224.406 233.152ZM235.111 231.768C235.703 231.768 236.236 231.867 236.711 232.064C237.186 232.261 237.591 232.541 237.927 232.904C238.263 233.267 238.519 233.707 238.695 234.224C238.876 234.736 238.967 235.309 238.967 235.944C238.967 236.584 238.876 237.16 238.695 237.672C238.519 238.184 238.263 238.621 237.927 238.984C237.591 239.347 237.186 239.627 236.711 239.824C236.236 240.016 235.703 240.112 235.111 240.112C234.514 240.112 233.975 240.016 233.495 239.824C233.02 239.627 232.615 239.347 232.279 238.984C231.943 238.621 231.684 238.184 231.503 237.672C231.327 237.16 231.239 236.584 231.239 235.944C231.239 235.309 231.327 234.736 231.503 234.224C231.684 233.707 231.943 233.267 232.279 232.904C232.615 232.541 233.02 232.261 233.495 232.064C233.975 231.867 234.514 231.768 235.111 231.768ZM235.111 239C235.911 239 236.508 238.733 236.903 238.2C237.298 237.661 237.495 236.912 237.495 235.952C237.495 234.987 237.298 234.235 236.903 233.696C236.508 233.157 235.911 232.888 235.111 232.888C234.706 232.888 234.351 232.957 234.047 233.096C233.748 233.235 233.498 233.435 233.295 233.696C233.098 233.957 232.948 234.28 232.847 234.664C232.751 235.043 232.703 235.472 232.703 235.952C232.703 236.912 232.9 237.661 233.295 238.2C233.695 238.733 234.3 239 235.111 239ZM245.173 233.232C245.109 233.349 245.01 233.408 244.877 233.408C244.797 233.408 244.706 233.379 244.605 233.32C244.504 233.261 244.378 233.197 244.229 233.128C244.085 233.053 243.912 232.987 243.709 232.928C243.506 232.864 243.266 232.832 242.989 232.832C242.749 232.832 242.533 232.864 242.341 232.928C242.149 232.987 241.984 233.069 241.845 233.176C241.712 233.283 241.608 233.408 241.533 233.552C241.464 233.691 241.429 233.843 241.429 234.008C241.429 234.216 241.488 234.389 241.605 234.528C241.728 234.667 241.888 234.787 242.085 234.888C242.282 234.989 242.506 235.08 242.757 235.16C243.008 235.235 243.264 235.317 243.525 235.408C243.792 235.493 244.05 235.589 244.301 235.696C244.552 235.803 244.776 235.936 244.973 236.096C245.17 236.256 245.328 236.453 245.445 236.688C245.568 236.917 245.629 237.195 245.629 237.52C245.629 237.893 245.562 238.24 245.429 238.56C245.296 238.875 245.098 239.149 244.837 239.384C244.576 239.613 244.256 239.795 243.877 239.928C243.498 240.061 243.061 240.128 242.565 240.128C242 240.128 241.488 240.037 241.029 239.856C240.57 239.669 240.181 239.432 239.861 239.144L240.197 238.6C240.24 238.531 240.29 238.477 240.349 238.44C240.408 238.403 240.482 238.384 240.573 238.384C240.669 238.384 240.77 238.421 240.877 238.496C240.984 238.571 241.112 238.653 241.261 238.744C241.416 238.835 241.602 238.917 241.821 238.992C242.04 239.067 242.312 239.104 242.637 239.104C242.914 239.104 243.157 239.069 243.365 239C243.573 238.925 243.746 238.827 243.885 238.704C244.024 238.581 244.125 238.44 244.189 238.28C244.258 238.12 244.293 237.949 244.293 237.768C244.293 237.544 244.232 237.36 244.109 237.216C243.992 237.067 243.834 236.941 243.637 236.84C243.44 236.733 243.213 236.643 242.957 236.568C242.706 236.488 242.448 236.405 242.181 236.32C241.92 236.235 241.661 236.139 241.405 236.032C241.154 235.92 240.93 235.781 240.733 235.616C240.536 235.451 240.376 235.248 240.253 235.008C240.136 234.763 240.077 234.467 240.077 234.12C240.077 233.811 240.141 233.515 240.269 233.232C240.397 232.944 240.584 232.693 240.829 232.48C241.074 232.261 241.376 232.088 241.733 231.96C242.09 231.832 242.498 231.768 242.957 231.768C243.49 231.768 243.968 231.853 244.389 232.024C244.816 232.189 245.184 232.419 245.493 232.712L245.173 233.232ZM252.479 235.064C252.479 234.733 252.431 234.432 252.335 234.16C252.244 233.883 252.108 233.645 251.927 233.448C251.751 233.245 251.535 233.091 251.279 232.984C251.023 232.872 250.732 232.816 250.407 232.816C249.724 232.816 249.183 233.016 248.783 233.416C248.388 233.811 248.143 234.36 248.047 235.064H252.479ZM253.631 238.864C253.455 239.077 253.244 239.264 252.999 239.424C252.754 239.579 252.49 239.707 252.207 239.808C251.93 239.909 251.642 239.984 251.343 240.032C251.044 240.085 250.748 240.112 250.455 240.112C249.895 240.112 249.378 240.019 248.903 239.832C248.434 239.64 248.026 239.363 247.679 239C247.338 238.632 247.071 238.179 246.879 237.64C246.687 237.101 246.591 236.483 246.591 235.784C246.591 235.219 246.676 234.691 246.847 234.2C247.023 233.709 247.274 233.285 247.599 232.928C247.924 232.565 248.322 232.283 248.791 232.08C249.26 231.872 249.788 231.768 250.375 231.768C250.86 231.768 251.308 231.851 251.719 232.016C252.135 232.176 252.492 232.411 252.791 232.72C253.095 233.024 253.332 233.403 253.503 233.856C253.674 234.304 253.759 234.816 253.759 235.392C253.759 235.616 253.735 235.765 253.687 235.84C253.639 235.915 253.548 235.952 253.415 235.952H247.999C248.015 236.464 248.084 236.909 248.207 237.288C248.335 237.667 248.511 237.984 248.735 238.24C248.959 238.491 249.226 238.68 249.535 238.808C249.844 238.931 250.191 238.992 250.575 238.992C250.932 238.992 251.239 238.952 251.495 238.872C251.756 238.787 251.98 238.696 252.167 238.6C252.354 238.504 252.508 238.416 252.631 238.336C252.759 238.251 252.868 238.208 252.959 238.208C253.076 238.208 253.167 238.253 253.231 238.344L253.631 238.864Z" fill="#1E3A8A"/>
<rect x="56" y="274" width="268" height="60" rx="12" fill="#E6F8FB"/>
<rect x="72" y="290" width="28" height="28" rx="14" fill="#06B6D4"/>
<path d="M82.41 302.185C82.4753 301.728 82.6013 301.324 82.788 300.974C82.9747 300.619 83.2103 300.323 83.495 300.085C83.7843 299.847 84.1133 299.667 84.482 299.546C84.8553 299.42 85.2567 299.357 85.686 299.357C86.1107 299.357 86.5027 299.418 86.862 299.539C87.2213 299.66 87.5293 299.833 87.786 300.057C88.0473 300.281 88.2503 300.552 88.395 300.869C88.5397 301.186 88.612 301.539 88.612 301.926C88.612 302.243 88.57 302.528 88.486 302.78C88.4067 303.027 88.29 303.244 88.136 303.431C87.9867 303.618 87.8047 303.776 87.59 303.907C87.3753 304.038 87.135 304.145 86.869 304.229C87.5223 304.397 88.0123 304.686 88.339 305.097C88.6703 305.503 88.836 306.012 88.836 306.623C88.836 307.085 88.7473 307.5 88.57 307.869C88.3973 308.238 88.1593 308.553 87.856 308.814C87.5527 309.071 87.198 309.269 86.792 309.409C86.3907 309.544 85.959 309.612 85.497 309.612C84.965 309.612 84.51 309.547 84.132 309.416C83.754 309.281 83.4343 309.096 83.173 308.863C82.9117 308.63 82.697 308.354 82.529 308.037C82.361 307.715 82.2187 307.367 82.102 306.994L82.641 306.77C82.781 306.709 82.9163 306.693 83.047 306.721C83.1823 306.749 83.2803 306.826 83.341 306.952C83.4017 307.083 83.4763 307.239 83.565 307.421C83.6583 307.603 83.7843 307.778 83.943 307.946C84.1017 308.114 84.3023 308.256 84.545 308.373C84.7923 308.49 85.105 308.548 85.483 308.548C85.833 308.548 86.1387 308.492 86.4 308.38C86.666 308.263 86.8853 308.114 87.058 307.932C87.2353 307.75 87.3683 307.547 87.457 307.323C87.5457 307.099 87.59 306.877 87.59 306.658C87.59 306.387 87.555 306.14 87.485 305.916C87.415 305.692 87.2843 305.498 87.093 305.335C86.9017 305.172 86.638 305.043 86.302 304.95C85.9707 304.857 85.5437 304.81 85.021 304.81V303.907C85.4503 303.902 85.8143 303.856 86.113 303.767C86.4163 303.678 86.6613 303.557 86.848 303.403C87.0393 303.249 87.177 303.065 87.261 302.85C87.3497 302.635 87.394 302.397 87.394 302.136C87.394 301.847 87.3473 301.595 87.254 301.38C87.1653 301.165 87.0417 300.988 86.883 300.848C86.7243 300.708 86.5353 300.603 86.316 300.533C86.1013 300.463 85.868 300.428 85.616 300.428C85.364 300.428 85.1283 300.465 84.909 300.54C84.6943 300.615 84.503 300.72 84.335 300.855C84.1717 300.986 84.034 301.142 83.922 301.324C83.81 301.506 83.7307 301.707 83.684 301.926C83.6233 302.089 83.5463 302.199 83.453 302.255C83.3643 302.306 83.2337 302.32 83.061 302.297L82.41 302.185Z" fill="white"/>
<path d="M129.512 307.632C129.597 307.632 129.672 307.667 129.736 307.736L130.352 308.4C129.883 308.944 129.312 309.368 128.64 309.672C127.973 309.976 127.165 310.128 126.216 310.128C125.395 310.128 124.648 309.987 123.976 309.704C123.304 309.416 122.731 309.016 122.256 308.504C121.781 307.987 121.413 307.368 121.152 306.648C120.891 305.928 120.76 305.136 120.76 304.272C120.76 303.408 120.896 302.616 121.168 301.896C121.44 301.176 121.821 300.557 122.312 300.04C122.808 299.523 123.4 299.123 124.088 298.84C124.776 298.552 125.536 298.408 126.368 298.408C127.184 298.408 127.904 298.539 128.528 298.8C129.152 299.061 129.701 299.416 130.176 299.864L129.664 300.576C129.632 300.629 129.589 300.675 129.536 300.712C129.488 300.744 129.421 300.76 129.336 300.76C129.24 300.76 129.123 300.709 128.984 300.608C128.845 300.501 128.664 300.384 128.44 300.256C128.216 300.128 127.936 300.013 127.6 299.912C127.264 299.805 126.851 299.752 126.36 299.752C125.768 299.752 125.227 299.856 124.736 300.064C124.245 300.267 123.821 300.563 123.464 300.952C123.112 301.341 122.837 301.816 122.64 302.376C122.443 302.936 122.344 303.568 122.344 304.272C122.344 304.987 122.445 305.624 122.648 306.184C122.856 306.744 123.136 307.219 123.488 307.608C123.845 307.992 124.264 308.285 124.744 308.488C125.229 308.691 125.752 308.792 126.312 308.792C126.653 308.792 126.96 308.773 127.232 308.736C127.509 308.693 127.763 308.629 127.992 308.544C128.227 308.459 128.443 308.352 128.64 308.224C128.843 308.091 129.043 307.933 129.24 307.752C129.331 307.672 129.421 307.632 129.512 307.632ZM134.755 301.768C135.347 301.768 135.881 301.867 136.355 302.064C136.83 302.261 137.235 302.541 137.571 302.904C137.907 303.267 138.163 303.707 138.339 304.224C138.521 304.736 138.611 305.309 138.611 305.944C138.611 306.584 138.521 307.16 138.339 307.672C138.163 308.184 137.907 308.621 137.571 308.984C137.235 309.347 136.83 309.627 136.355 309.824C135.881 310.016 135.347 310.112 134.755 310.112C134.158 310.112 133.619 310.016 133.139 309.824C132.665 309.627 132.259 309.347 131.923 308.984C131.587 308.621 131.329 308.184 131.147 307.672C130.971 307.16 130.883 306.584 130.883 305.944C130.883 305.309 130.971 304.736 131.147 304.224C131.329 303.707 131.587 303.267 131.923 302.904C132.259 302.541 132.665 302.261 133.139 302.064C133.619 301.867 134.158 301.768 134.755 301.768ZM134.755 309C135.555 309 136.153 308.733 136.547 308.2C136.942 307.661 137.139 306.912 137.139 305.952C137.139 304.987 136.942 304.235 136.547 303.696C136.153 303.157 135.555 302.888 134.755 302.888C134.35 302.888 133.995 302.957 133.691 303.096C133.393 303.235 133.142 303.435 132.939 303.696C132.742 303.957 132.593 304.28 132.491 304.664C132.395 305.043 132.347 305.472 132.347 305.952C132.347 306.912 132.545 307.661 132.939 308.2C133.339 308.733 133.945 309 134.755 309ZM141.441 303.072C141.617 302.875 141.804 302.696 142.001 302.536C142.199 302.376 142.407 302.24 142.625 302.128C142.849 302.011 143.084 301.923 143.329 301.864C143.58 301.8 143.849 301.768 144.137 301.768C144.58 301.768 144.969 301.843 145.305 301.992C145.647 302.136 145.929 302.344 146.153 302.616C146.383 302.883 146.556 303.205 146.673 303.584C146.791 303.963 146.849 304.381 146.849 304.84V310H145.417V304.84C145.417 304.227 145.276 303.752 144.993 303.416C144.716 303.075 144.292 302.904 143.721 302.904C143.3 302.904 142.905 303.005 142.537 303.208C142.175 303.411 141.839 303.685 141.529 304.032V310H140.097V301.896H140.953C141.156 301.896 141.281 301.995 141.329 302.192L141.441 303.072ZM149.118 310V303.112L148.222 303.008C148.105 302.981 148.012 302.941 147.942 302.888C147.873 302.829 147.838 302.747 147.838 302.64V302.056H149.118V301.608C149.118 301.112 149.196 300.659 149.35 300.248C149.505 299.832 149.737 299.475 150.046 299.176C150.356 298.877 150.74 298.645 151.198 298.48C151.662 298.315 152.198 298.232 152.806 298.232C153.009 298.232 153.217 298.245 153.43 298.272C153.644 298.299 153.828 298.339 153.982 298.392L153.926 299.136C153.921 299.189 153.9 299.227 153.862 299.248C153.83 299.269 153.785 299.283 153.726 299.288C153.668 299.293 153.593 299.296 153.502 299.296C153.417 299.291 153.318 299.288 153.206 299.288C152.257 299.288 151.569 299.485 151.142 299.88C150.716 300.269 150.502 300.859 150.502 301.648V302.056H155.398V310H153.966V303.088H150.542V310H149.118ZM162.691 303.824C162.424 303.467 162.136 303.219 161.827 303.08C161.517 302.936 161.171 302.864 160.787 302.864C160.035 302.864 159.456 303.133 159.051 303.672C158.645 304.211 158.443 304.979 158.443 305.976C158.443 306.504 158.488 306.957 158.579 307.336C158.669 307.709 158.803 308.019 158.979 308.264C159.155 308.504 159.371 308.68 159.627 308.792C159.883 308.904 160.173 308.96 160.499 308.96C160.968 308.96 161.376 308.853 161.723 308.64C162.075 308.427 162.397 308.125 162.691 307.736V303.824ZM164.115 298.216V310H163.267C163.064 310 162.936 309.901 162.883 309.704L162.755 308.72C162.408 309.136 162.013 309.472 161.571 309.728C161.128 309.984 160.616 310.112 160.035 310.112C159.571 310.112 159.149 310.024 158.771 309.848C158.392 309.667 158.069 309.403 157.803 309.056C157.536 308.709 157.331 308.277 157.187 307.76C157.043 307.243 156.971 306.648 156.971 305.976C156.971 305.379 157.051 304.824 157.211 304.312C157.371 303.795 157.6 303.347 157.899 302.968C158.197 302.589 158.563 302.293 158.995 302.08C159.432 301.861 159.923 301.752 160.467 301.752C160.963 301.752 161.387 301.837 161.739 302.008C162.096 302.173 162.413 302.405 162.691 302.704V298.216H164.115ZM171.468 305.064C171.468 304.733 171.42 304.432 171.324 304.16C171.233 303.883 171.097 303.645 170.916 303.448C170.74 303.245 170.524 303.091 170.268 302.984C170.012 302.872 169.721 302.816 169.396 302.816C168.713 302.816 168.172 303.016 167.772 303.416C167.377 303.811 167.132 304.36 167.036 305.064H171.468ZM172.62 308.864C172.444 309.077 172.233 309.264 171.988 309.424C171.742 309.579 171.478 309.707 171.196 309.808C170.918 309.909 170.63 309.984 170.332 310.032C170.033 310.085 169.737 310.112 169.444 310.112C168.884 310.112 168.366 310.019 167.892 309.832C167.422 309.64 167.014 309.363 166.668 309C166.326 308.632 166.06 308.179 165.868 307.64C165.676 307.101 165.58 306.483 165.58 305.784C165.58 305.219 165.665 304.691 165.836 304.2C166.012 303.709 166.262 303.285 166.588 302.928C166.913 302.565 167.31 302.283 167.78 302.08C168.249 301.872 168.777 301.768 169.364 301.768C169.849 301.768 170.297 301.851 170.708 302.016C171.124 302.176 171.481 302.411 171.78 302.72C172.084 303.024 172.321 303.403 172.492 303.856C172.662 304.304 172.748 304.816 172.748 305.392C172.748 305.616 172.724 305.765 172.676 305.84C172.628 305.915 172.537 305.952 172.404 305.952H166.988C167.004 306.464 167.073 306.909 167.196 307.288C167.324 307.667 167.5 307.984 167.724 308.24C167.948 308.491 168.214 308.68 168.524 308.808C168.833 308.931 169.18 308.992 169.564 308.992C169.921 308.992 170.228 308.952 170.484 308.872C170.745 308.787 170.969 308.696 171.156 308.6C171.342 308.504 171.497 308.416 171.62 308.336C171.748 308.251 171.857 308.208 171.948 308.208C172.065 308.208 172.156 308.253 172.22 308.344L172.62 308.864ZM175.521 303.072C175.697 302.875 175.883 302.696 176.081 302.536C176.278 302.376 176.486 302.24 176.705 302.128C176.929 302.011 177.163 301.923 177.409 301.864C177.659 301.8 177.929 301.768 178.217 301.768C178.659 301.768 179.049 301.843 179.385 301.992C179.726 302.136 180.009 302.344 180.233 302.616C180.462 302.883 180.635 303.205 180.753 303.584C180.87 303.963 180.929 304.381 180.929 304.84V310H179.497V304.84C179.497 304.227 179.355 303.752 179.073 303.416C178.795 303.075 178.371 302.904 177.801 302.904C177.379 302.904 176.985 303.005 176.617 303.208C176.254 303.411 175.918 303.685 175.609 304.032V310H174.177V301.896H175.033C175.235 301.896 175.361 301.995 175.409 302.192L175.521 303.072ZM190.189 310H188.765V303.088H184.589V307.952C184.589 308.293 184.672 308.547 184.837 308.712C185.003 308.877 185.216 308.96 185.477 308.96C185.627 308.96 185.755 308.941 185.861 308.904C185.973 308.861 186.069 308.816 186.149 308.768C186.229 308.72 186.296 308.677 186.349 308.64C186.408 308.597 186.459 308.576 186.501 308.576C186.576 308.576 186.643 308.621 186.701 308.712L187.117 309.392C186.872 309.621 186.576 309.803 186.229 309.936C185.883 310.064 185.525 310.128 185.157 310.128C184.517 310.128 184.024 309.949 183.677 309.592C183.336 309.235 183.165 308.72 183.165 308.048V303.088H182.189C182.104 303.088 182.032 303.064 181.973 303.016C181.915 302.963 181.885 302.883 181.885 302.776V302.208L183.213 302.032L183.541 299.536C183.557 299.456 183.592 299.392 183.645 299.344C183.704 299.291 183.779 299.264 183.869 299.264H184.589V302.056H190.189V310ZM190.541 299.296C190.541 299.435 190.512 299.565 190.453 299.688C190.4 299.805 190.325 299.909 190.229 300C190.139 300.091 190.032 300.163 189.909 300.216C189.787 300.269 189.656 300.296 189.517 300.296C189.379 300.296 189.248 300.269 189.125 300.216C189.008 300.163 188.904 300.091 188.813 300C188.723 299.909 188.651 299.805 188.597 299.688C188.544 299.565 188.517 299.435 188.517 299.296C188.517 299.157 188.544 299.027 188.597 298.904C188.651 298.776 188.723 298.667 188.813 298.576C188.904 298.48 189.008 298.405 189.125 298.352C189.248 298.299 189.379 298.272 189.517 298.272C189.656 298.272 189.787 298.299 189.909 298.352C190.032 298.405 190.139 298.48 190.229 298.576C190.325 298.667 190.4 298.776 190.453 298.904C190.512 299.027 190.541 299.157 190.541 299.296ZM196.601 306.352C195.945 306.373 195.385 306.427 194.921 306.512C194.462 306.592 194.086 306.699 193.793 306.832C193.505 306.965 193.294 307.123 193.161 307.304C193.033 307.485 192.969 307.688 192.969 307.912C192.969 308.125 193.003 308.309 193.073 308.464C193.142 308.619 193.235 308.747 193.353 308.848C193.475 308.944 193.617 309.016 193.777 309.064C193.942 309.107 194.118 309.128 194.305 309.128C194.555 309.128 194.785 309.104 194.993 309.056C195.201 309.003 195.395 308.928 195.577 308.832C195.763 308.736 195.939 308.621 196.105 308.488C196.275 308.355 196.441 308.203 196.601 308.032V306.352ZM192.001 303.04C192.449 302.608 192.931 302.285 193.449 302.072C193.966 301.859 194.539 301.752 195.169 301.752C195.622 301.752 196.025 301.827 196.377 301.976C196.729 302.125 197.025 302.333 197.265 302.6C197.505 302.867 197.686 303.189 197.809 303.568C197.931 303.947 197.993 304.363 197.993 304.816V310H197.361C197.222 310 197.115 309.979 197.041 309.936C196.966 309.888 196.907 309.797 196.865 309.664L196.705 308.896C196.491 309.093 196.283 309.269 196.081 309.424C195.878 309.573 195.665 309.701 195.441 309.808C195.217 309.909 194.977 309.987 194.721 310.04C194.47 310.099 194.19 310.128 193.881 310.128C193.566 310.128 193.27 310.085 192.993 310C192.715 309.909 192.473 309.776 192.265 309.6C192.062 309.424 191.899 309.203 191.777 308.936C191.659 308.664 191.601 308.344 191.601 307.976C191.601 307.656 191.689 307.349 191.865 307.056C192.041 306.757 192.326 306.493 192.721 306.264C193.115 306.035 193.63 305.848 194.265 305.704C194.899 305.555 195.678 305.469 196.601 305.448V304.816C196.601 304.187 196.465 303.712 196.193 303.392C195.921 303.067 195.523 302.904 195.001 302.904C194.649 302.904 194.353 302.949 194.113 303.04C193.878 303.125 193.673 303.224 193.497 303.336C193.326 303.443 193.177 303.541 193.049 303.632C192.926 303.717 192.803 303.76 192.681 303.76C192.585 303.76 192.502 303.736 192.433 303.688C192.363 303.635 192.305 303.571 192.257 303.496L192.001 303.04ZM201.314 298.216V310H199.89V298.216H201.314ZM208.965 310H207.413V298.536H208.965V310ZM212.46 303.072C212.636 302.875 212.823 302.696 213.02 302.536C213.217 302.376 213.425 302.24 213.644 302.128C213.868 302.011 214.103 301.923 214.348 301.864C214.599 301.8 214.868 301.768 215.156 301.768C215.599 301.768 215.988 301.843 216.324 301.992C216.665 302.136 216.948 302.344 217.172 302.616C217.401 302.883 217.575 303.205 217.692 303.584C217.809 303.963 217.868 304.381 217.868 304.84V310H216.436V304.84C216.436 304.227 216.295 303.752 216.012 303.416C215.735 303.075 215.311 302.904 214.74 302.904C214.319 302.904 213.924 303.005 213.556 303.208C213.193 303.411 212.857 303.685 212.548 304.032V310H211.116V301.896H211.972C212.175 301.896 212.3 301.995 212.348 302.192L212.46 303.072ZM220.121 310V303.112L219.225 303.008C219.113 302.981 219.02 302.941 218.945 302.888C218.876 302.829 218.841 302.747 218.841 302.64V302.056H220.121V301.272C220.121 300.808 220.185 300.397 220.313 300.04C220.446 299.677 220.633 299.373 220.873 299.128C221.118 298.877 221.412 298.688 221.753 298.56C222.094 298.432 222.478 298.368 222.905 298.368C223.268 298.368 223.601 298.421 223.905 298.528L223.873 299.24C223.862 299.368 223.79 299.437 223.657 299.448C223.529 299.459 223.356 299.464 223.137 299.464C222.892 299.464 222.668 299.496 222.465 299.56C222.268 299.624 222.097 299.728 221.953 299.872C221.809 300.016 221.697 300.205 221.617 300.44C221.542 300.675 221.505 300.965 221.505 301.312V302.056H223.841V303.088H221.553V310H220.121ZM228.033 301.768C228.625 301.768 229.158 301.867 229.633 302.064C230.107 302.261 230.513 302.541 230.849 302.904C231.185 303.267 231.441 303.707 231.617 304.224C231.798 304.736 231.889 305.309 231.889 305.944C231.889 306.584 231.798 307.16 231.617 307.672C231.441 308.184 231.185 308.621 230.849 308.984C230.513 309.347 230.107 309.627 229.633 309.824C229.158 310.016 228.625 310.112 228.033 310.112C227.435 310.112 226.897 310.016 226.417 309.824C225.942 309.627 225.537 309.347 225.201 308.984C224.865 308.621 224.606 308.184 224.425 307.672C224.249 307.16 224.161 306.584 224.161 305.944C224.161 305.309 224.249 304.736 224.425 304.224C224.606 303.707 224.865 303.267 225.201 302.904C225.537 302.541 225.942 302.261 226.417 302.064C226.897 301.867 227.435 301.768 228.033 301.768ZM228.033 309C228.833 309 229.43 308.733 229.825 308.2C230.219 307.661 230.417 306.912 230.417 305.952C230.417 304.987 230.219 304.235 229.825 303.696C229.43 303.157 228.833 302.888 228.033 302.888C227.627 302.888 227.273 302.957 226.969 303.096C226.67 303.235 226.419 303.435 226.217 303.696C226.019 303.957 225.87 304.28 225.769 304.664C225.673 305.043 225.625 305.472 225.625 305.952C225.625 306.912 225.822 307.661 226.217 308.2C226.617 308.733 227.222 309 228.033 309ZM234.727 303.52C234.983 302.965 235.298 302.533 235.671 302.224C236.044 301.909 236.5 301.752 237.039 301.752C237.21 301.752 237.372 301.771 237.527 301.808C237.687 301.845 237.828 301.904 237.951 301.984L237.847 303.048C237.815 303.181 237.735 303.248 237.607 303.248C237.532 303.248 237.423 303.232 237.279 303.2C237.135 303.168 236.972 303.152 236.791 303.152C236.535 303.152 236.306 303.189 236.103 303.264C235.906 303.339 235.727 303.451 235.567 303.6C235.412 303.744 235.271 303.925 235.143 304.144C235.02 304.357 234.908 304.603 234.807 304.88V310H233.375V301.896H234.191C234.346 301.896 234.452 301.925 234.511 301.984C234.57 302.043 234.61 302.144 234.631 302.288L234.727 303.52ZM238.883 310V301.896H239.739C239.942 301.896 240.067 301.995 240.115 302.192L240.219 303.024C240.518 302.656 240.854 302.355 241.227 302.12C241.6 301.885 242.032 301.768 242.523 301.768C243.067 301.768 243.507 301.92 243.843 302.224C244.184 302.528 244.43 302.939 244.579 303.456C244.696 303.163 244.846 302.909 245.027 302.696C245.214 302.483 245.422 302.307 245.651 302.168C245.88 302.029 246.123 301.928 246.379 301.864C246.64 301.8 246.904 301.768 247.171 301.768C247.598 301.768 247.976 301.837 248.307 301.976C248.643 302.109 248.926 302.307 249.155 302.568C249.39 302.829 249.568 303.152 249.691 303.536C249.814 303.915 249.875 304.349 249.875 304.84V310H248.443V304.84C248.443 304.205 248.304 303.725 248.027 303.4C247.75 303.069 247.35 302.904 246.827 302.904C246.592 302.904 246.368 302.947 246.155 303.032C245.947 303.112 245.763 303.232 245.603 303.392C245.443 303.552 245.315 303.755 245.219 304C245.128 304.24 245.083 304.52 245.083 304.84V310H243.651V304.84C243.651 304.189 243.52 303.704 243.259 303.384C242.998 303.064 242.616 302.904 242.115 302.904C241.763 302.904 241.438 303 241.139 303.192C240.84 303.379 240.566 303.635 240.315 303.96V310H238.883ZM256.111 306.352C255.455 306.373 254.895 306.427 254.431 306.512C253.973 306.592 253.597 306.699 253.303 306.832C253.015 306.965 252.805 307.123 252.671 307.304C252.543 307.485 252.479 307.688 252.479 307.912C252.479 308.125 252.514 308.309 252.583 308.464C252.653 308.619 252.746 308.747 252.863 308.848C252.986 308.944 253.127 309.016 253.287 309.064C253.453 309.107 253.629 309.128 253.815 309.128C254.066 309.128 254.295 309.104 254.503 309.056C254.711 309.003 254.906 308.928 255.087 308.832C255.274 308.736 255.45 308.621 255.615 308.488C255.786 308.355 255.951 308.203 256.111 308.032V306.352ZM251.511 303.04C251.959 302.608 252.442 302.285 252.959 302.072C253.477 301.859 254.05 301.752 254.679 301.752C255.133 301.752 255.535 301.827 255.887 301.976C256.239 302.125 256.535 302.333 256.775 302.6C257.015 302.867 257.197 303.189 257.319 303.568C257.442 303.947 257.503 304.363 257.503 304.816V310H256.871C256.733 310 256.626 309.979 256.551 309.936C256.477 309.888 256.418 309.797 256.375 309.664L256.215 308.896C256.002 309.093 255.794 309.269 255.591 309.424C255.389 309.573 255.175 309.701 254.951 309.808C254.727 309.909 254.487 309.987 254.231 310.04C253.981 310.099 253.701 310.128 253.391 310.128C253.077 310.128 252.781 310.085 252.503 310C252.226 309.909 251.983 309.776 251.775 309.6C251.573 309.424 251.41 309.203 251.287 308.936C251.17 308.664 251.111 308.344 251.111 307.976C251.111 307.656 251.199 307.349 251.375 307.056C251.551 306.757 251.837 306.493 252.231 306.264C252.626 306.035 253.141 305.848 253.775 305.704C254.41 305.555 255.189 305.469 256.111 305.448V304.816C256.111 304.187 255.975 303.712 255.703 303.392C255.431 303.067 255.034 302.904 254.511 302.904C254.159 302.904 253.863 302.949 253.623 303.04C253.389 303.125 253.183 303.224 253.007 303.336C252.837 303.443 252.687 303.541 252.559 303.632C252.437 303.717 252.314 303.76 252.191 303.76C252.095 303.76 252.013 303.736 251.943 303.688C251.874 303.635 251.815 303.571 251.767 303.496L251.511 303.04ZM266.763 310H265.339V303.088H261.163V307.952C261.163 308.293 261.246 308.547 261.411 308.712C261.576 308.877 261.79 308.96 262.051 308.96C262.2 308.96 262.328 308.941 262.435 308.904C262.547 308.861 262.643 308.816 262.723 308.768C262.803 308.72 262.87 308.677 262.923 308.64C262.982 308.597 263.032 308.576 263.075 308.576C263.15 308.576 263.216 308.621 263.275 308.712L263.691 309.392C263.446 309.621 263.15 309.803 262.803 309.936C262.456 310.064 262.099 310.128 261.731 310.128C261.091 310.128 260.598 309.949 260.251 309.592C259.91 309.235 259.739 308.72 259.739 308.048V303.088H258.763C258.678 303.088 258.606 303.064 258.547 303.016C258.488 302.963 258.459 302.883 258.459 302.776V302.208L259.787 302.032L260.115 299.536C260.131 299.456 260.166 299.392 260.219 299.344C260.278 299.291 260.352 299.264 260.443 299.264H261.163V302.056H266.763V310ZM267.115 299.296C267.115 299.435 267.086 299.565 267.027 299.688C266.974 299.805 266.899 299.909 266.803 300C266.712 300.091 266.606 300.163 266.483 300.216C266.36 300.269 266.23 300.296 266.091 300.296C265.952 300.296 265.822 300.269 265.699 300.216C265.582 300.163 265.478 300.091 265.387 300C265.296 299.909 265.224 299.805 265.171 299.688C265.118 299.565 265.091 299.435 265.091 299.296C265.091 299.157 265.118 299.027 265.171 298.904C265.224 298.776 265.296 298.667 265.387 298.576C265.478 298.48 265.582 298.405 265.699 298.352C265.822 298.299 265.952 298.272 266.091 298.272C266.23 298.272 266.36 298.299 266.483 298.352C266.606 298.405 266.712 298.48 266.803 298.576C266.899 298.667 266.974 298.776 267.027 298.904C267.086 299.027 267.115 299.157 267.115 299.296ZM272.198 301.768C272.79 301.768 273.324 301.867 273.798 302.064C274.273 302.261 274.678 302.541 275.014 302.904C275.35 303.267 275.606 303.707 275.782 304.224C275.964 304.736 276.054 305.309 276.054 305.944C276.054 306.584 275.964 307.16 275.782 307.672C275.606 308.184 275.35 308.621 275.014 308.984C274.678 309.347 274.273 309.627 273.798 309.824C273.324 310.016 272.79 310.112 272.198 310.112C271.601 310.112 271.062 310.016 270.582 309.824C270.108 309.627 269.702 309.347 269.366 308.984C269.03 308.621 268.772 308.184 268.59 307.672C268.414 307.16 268.326 306.584 268.326 305.944C268.326 305.309 268.414 304.736 268.59 304.224C268.772 303.707 269.03 303.267 269.366 302.904C269.702 302.541 270.108 302.261 270.582 302.064C271.062 301.867 271.601 301.768 272.198 301.768ZM272.198 309C272.998 309 273.596 308.733 273.99 308.2C274.385 307.661 274.582 306.912 274.582 305.952C274.582 304.987 274.385 304.235 273.99 303.696C273.596 303.157 272.998 302.888 272.198 302.888C271.793 302.888 271.438 302.957 271.134 303.096C270.836 303.235 270.585 303.435 270.382 303.696C270.185 303.957 270.036 304.28 269.934 304.664C269.838 305.043 269.79 305.472 269.79 305.952C269.79 306.912 269.988 307.661 270.382 308.2C270.782 308.733 271.388 309 272.198 309ZM278.885 303.072C279.061 302.875 279.247 302.696 279.445 302.536C279.642 302.376 279.85 302.24 280.069 302.128C280.293 302.011 280.527 301.923 280.773 301.864C281.023 301.8 281.293 301.768 281.581 301.768C282.023 301.768 282.413 301.843 282.749 301.992C283.09 302.136 283.373 302.344 283.597 302.616C283.826 302.883 283.999 303.205 284.117 303.584C284.234 303.963 284.293 304.381 284.293 304.84V310H282.861V304.84C282.861 304.227 282.719 303.752 282.437 303.416C282.159 303.075 281.735 302.904 281.165 302.904C280.743 302.904 280.349 303.005 279.981 303.208C279.618 303.411 279.282 303.685 278.973 304.032V310H277.541V301.896H278.397C278.599 301.896 278.725 301.995 278.773 302.192L278.885 303.072Z" fill="#1E3A8A"/>
<rect x="56" y="344" width="268" height="60" rx="12" fill="#F1F1F1"/>
<rect x="72" y="360" width="28" height="28" rx="14" fill="#06B6D4" fill-opacity="0.2"/>
<path d="M86.61 375.881V371.744C86.61 371.623 86.6147 371.49 86.624 371.345C86.6333 371.2 86.6473 371.053 86.666 370.904L83.012 375.881H86.61ZM89.221 375.881V376.595C89.221 376.67 89.1977 376.733 89.151 376.784C89.109 376.835 89.0413 376.861 88.948 376.861H87.702V379.5H86.61V376.861H82.158C82.0647 376.861 81.983 376.835 81.913 376.784C81.8477 376.728 81.8057 376.66 81.787 376.581L81.661 375.944L86.54 369.469H87.702V375.881H89.221Z" fill="black"/>
<path d="M127.552 375.744L125.752 371.08C125.699 370.941 125.643 370.781 125.584 370.6C125.525 370.413 125.469 370.216 125.416 370.008C125.304 370.44 125.189 370.8 125.072 371.088L123.272 375.744H127.552ZM130.784 380H129.584C129.445 380 129.333 379.965 129.248 379.896C129.163 379.827 129.099 379.739 129.056 379.632L127.984 376.864H122.84L121.768 379.632C121.736 379.728 121.675 379.813 121.584 379.888C121.493 379.963 121.381 380 121.248 380H120.048L124.632 368.536H126.2L130.784 380ZM134.46 376.04C134.748 376.04 135.001 376 135.22 375.92C135.439 375.84 135.623 375.728 135.772 375.584C135.921 375.44 136.033 375.269 136.108 375.072C136.183 374.869 136.22 374.648 136.22 374.408C136.22 373.912 136.068 373.517 135.764 373.224C135.465 372.931 135.031 372.784 134.46 372.784C133.884 372.784 133.444 372.931 133.14 373.224C132.841 373.517 132.692 373.912 132.692 374.408C132.692 374.648 132.729 374.869 132.804 375.072C132.884 375.269 132.999 375.44 133.148 375.584C133.297 375.728 133.481 375.84 133.7 375.92C133.919 376 134.172 376.04 134.46 376.04ZM137.028 380.44C137.028 380.243 136.972 380.083 136.86 379.96C136.748 379.837 136.596 379.741 136.404 379.672C136.217 379.603 135.999 379.555 135.748 379.528C135.497 379.496 135.231 379.472 134.948 379.456C134.671 379.44 134.388 379.424 134.1 379.408C133.812 379.392 133.535 379.365 133.268 379.328C132.969 379.467 132.724 379.643 132.532 379.856C132.345 380.064 132.252 380.309 132.252 380.592C132.252 380.773 132.297 380.941 132.388 381.096C132.484 381.256 132.628 381.392 132.82 381.504C133.012 381.621 133.252 381.712 133.54 381.776C133.833 381.845 134.177 381.88 134.572 381.88C134.956 381.88 135.3 381.845 135.604 381.776C135.908 381.707 136.164 381.608 136.372 381.48C136.585 381.352 136.748 381.2 136.86 381.024C136.972 380.848 137.028 380.653 137.028 380.44ZM138.476 372.216V372.744C138.476 372.92 138.364 373.032 138.14 373.08L137.22 373.2C137.401 373.552 137.492 373.941 137.492 374.368C137.492 374.763 137.415 375.123 137.26 375.448C137.111 375.768 136.903 376.043 136.636 376.272C136.369 376.501 136.049 376.677 135.676 376.8C135.303 376.923 134.897 376.984 134.46 376.984C134.081 376.984 133.724 376.939 133.388 376.848C133.217 376.955 133.087 377.069 132.996 377.192C132.905 377.309 132.86 377.429 132.86 377.552C132.86 377.744 132.937 377.891 133.092 377.992C133.252 378.088 133.46 378.157 133.716 378.2C133.972 378.243 134.263 378.269 134.588 378.28C134.919 378.291 135.255 378.309 135.596 378.336C135.943 378.357 136.279 378.397 136.604 378.456C136.935 378.515 137.228 378.611 137.484 378.744C137.74 378.877 137.945 379.061 138.1 379.296C138.26 379.531 138.34 379.835 138.34 380.208C138.34 380.555 138.252 380.891 138.076 381.216C137.905 381.541 137.657 381.829 137.332 382.08C137.007 382.336 136.607 382.539 136.132 382.688C135.663 382.843 135.132 382.92 134.54 382.92C133.948 382.92 133.431 382.861 132.988 382.744C132.545 382.627 132.177 382.469 131.884 382.272C131.591 382.075 131.369 381.845 131.22 381.584C131.076 381.328 131.004 381.059 131.004 380.776C131.004 380.376 131.129 380.037 131.38 379.76C131.631 379.483 131.975 379.261 132.412 379.096C132.172 378.989 131.98 378.848 131.836 378.672C131.697 378.491 131.628 378.248 131.628 377.944C131.628 377.827 131.649 377.707 131.692 377.584C131.735 377.456 131.799 377.331 131.884 377.208C131.975 377.08 132.084 376.96 132.212 376.848C132.34 376.736 132.489 376.637 132.66 376.552C132.26 376.328 131.948 376.032 131.724 375.664C131.5 375.291 131.388 374.859 131.388 374.368C131.388 373.973 131.463 373.616 131.612 373.296C131.767 372.971 131.98 372.696 132.252 372.472C132.524 372.243 132.847 372.067 133.22 371.944C133.599 371.821 134.012 371.76 134.46 371.76C134.812 371.76 135.14 371.8 135.444 371.88C135.748 371.955 136.025 372.067 136.276 372.216H138.476ZM140.981 373.52C141.237 372.965 141.551 372.533 141.925 372.224C142.298 371.909 142.754 371.752 143.293 371.752C143.463 371.752 143.626 371.771 143.781 371.808C143.941 371.845 144.082 371.904 144.205 371.984L144.101 373.048C144.069 373.181 143.989 373.248 143.861 373.248C143.786 373.248 143.677 373.232 143.533 373.2C143.389 373.168 143.226 373.152 143.045 373.152C142.789 373.152 142.559 373.189 142.357 373.264C142.159 373.339 141.981 373.451 141.821 373.6C141.666 373.744 141.525 373.925 141.397 374.144C141.274 374.357 141.162 374.603 141.061 374.88V380H139.629V371.896H140.445C140.599 371.896 140.706 371.925 140.765 371.984C140.823 372.043 140.863 372.144 140.885 372.288L140.981 373.52ZM150.233 375.064C150.233 374.733 150.185 374.432 150.089 374.16C149.998 373.883 149.862 373.645 149.681 373.448C149.505 373.245 149.289 373.091 149.033 372.984C148.777 372.872 148.486 372.816 148.161 372.816C147.478 372.816 146.937 373.016 146.537 373.416C146.142 373.811 145.897 374.36 145.801 375.064H150.233ZM151.385 378.864C151.209 379.077 150.998 379.264 150.753 379.424C150.507 379.579 150.243 379.707 149.961 379.808C149.683 379.909 149.395 379.984 149.097 380.032C148.798 380.085 148.502 380.112 148.209 380.112C147.649 380.112 147.131 380.019 146.657 379.832C146.187 379.64 145.779 379.363 145.433 379C145.091 378.632 144.825 378.179 144.633 377.64C144.441 377.101 144.345 376.483 144.345 375.784C144.345 375.219 144.43 374.691 144.601 374.2C144.777 373.709 145.027 373.285 145.353 372.928C145.678 372.565 146.075 372.283 146.545 372.08C147.014 371.872 147.542 371.768 148.129 371.768C148.614 371.768 149.062 371.851 149.473 372.016C149.889 372.176 150.246 372.411 150.545 372.72C150.849 373.024 151.086 373.403 151.257 373.856C151.427 374.304 151.513 374.816 151.513 375.392C151.513 375.616 151.489 375.765 151.441 375.84C151.393 375.915 151.302 375.952 151.169 375.952H145.753C145.769 376.464 145.838 376.909 145.961 377.288C146.089 377.667 146.265 377.984 146.489 378.24C146.713 378.491 146.979 378.68 147.289 378.808C147.598 378.931 147.945 378.992 148.329 378.992C148.686 378.992 148.993 378.952 149.249 378.872C149.51 378.787 149.734 378.696 149.921 378.6C150.107 378.504 150.262 378.416 150.385 378.336C150.513 378.251 150.622 378.208 150.713 378.208C150.83 378.208 150.921 378.253 150.985 378.344L151.385 378.864ZM158.366 375.064C158.366 374.733 158.318 374.432 158.222 374.16C158.131 373.883 157.995 373.645 157.814 373.448C157.638 373.245 157.422 373.091 157.166 372.984C156.91 372.872 156.619 372.816 156.294 372.816C155.611 372.816 155.07 373.016 154.67 373.416C154.275 373.811 154.03 374.36 153.934 375.064H158.366ZM159.518 378.864C159.342 379.077 159.131 379.264 158.886 379.424C158.64 379.579 158.376 379.707 158.094 379.808C157.816 379.909 157.528 379.984 157.23 380.032C156.931 380.085 156.635 380.112 156.342 380.112C155.782 380.112 155.264 380.019 154.79 379.832C154.32 379.64 153.912 379.363 153.566 379C153.224 378.632 152.958 378.179 152.766 377.64C152.574 377.101 152.478 376.483 152.478 375.784C152.478 375.219 152.563 374.691 152.734 374.2C152.91 373.709 153.16 373.285 153.486 372.928C153.811 372.565 154.208 372.283 154.678 372.08C155.147 371.872 155.675 371.768 156.262 371.768C156.747 371.768 157.195 371.851 157.606 372.016C158.022 372.176 158.379 372.411 158.678 372.72C158.982 373.024 159.219 373.403 159.39 373.856C159.56 374.304 159.646 374.816 159.646 375.392C159.646 375.616 159.622 375.765 159.574 375.84C159.526 375.915 159.435 375.952 159.302 375.952H153.886C153.902 376.464 153.971 376.909 154.094 377.288C154.222 377.667 154.398 377.984 154.622 378.24C154.846 378.491 155.112 378.68 155.422 378.808C155.731 378.931 156.078 378.992 156.462 378.992C156.819 378.992 157.126 378.952 157.382 378.872C157.643 378.787 157.867 378.696 158.054 378.6C158.24 378.504 158.395 378.416 158.518 378.336C158.646 378.251 158.755 378.208 158.846 378.208C158.963 378.208 159.054 378.253 159.118 378.344L159.518 378.864ZM161.075 380V371.896H161.931C162.134 371.896 162.259 371.995 162.307 372.192L162.411 373.024C162.71 372.656 163.046 372.355 163.419 372.12C163.792 371.885 164.224 371.768 164.715 371.768C165.259 371.768 165.699 371.92 166.035 372.224C166.376 372.528 166.622 372.939 166.771 373.456C166.888 373.163 167.038 372.909 167.219 372.696C167.406 372.483 167.614 372.307 167.843 372.168C168.072 372.029 168.315 371.928 168.571 371.864C168.832 371.8 169.096 371.768 169.363 371.768C169.79 371.768 170.168 371.837 170.499 371.976C170.835 372.109 171.118 372.307 171.347 372.568C171.582 372.829 171.76 373.152 171.883 373.536C172.006 373.915 172.067 374.349 172.067 374.84V380H170.635V374.84C170.635 374.205 170.496 373.725 170.219 373.4C169.942 373.069 169.542 372.904 169.019 372.904C168.784 372.904 168.56 372.947 168.347 373.032C168.139 373.112 167.955 373.232 167.795 373.392C167.635 373.552 167.507 373.755 167.411 374C167.32 374.24 167.275 374.52 167.275 374.84V380H165.843V374.84C165.843 374.189 165.712 373.704 165.451 373.384C165.19 373.064 164.808 372.904 164.307 372.904C163.955 372.904 163.63 373 163.331 373.192C163.032 373.379 162.758 373.635 162.507 373.96V380H161.075ZM179.335 375.064C179.335 374.733 179.287 374.432 179.191 374.16C179.1 373.883 178.964 373.645 178.783 373.448C178.607 373.245 178.391 373.091 178.135 372.984C177.879 372.872 177.588 372.816 177.263 372.816C176.58 372.816 176.039 373.016 175.639 373.416C175.244 373.811 174.999 374.36 174.903 375.064H179.335ZM180.487 378.864C180.311 379.077 180.1 379.264 179.855 379.424C179.61 379.579 179.346 379.707 179.063 379.808C178.786 379.909 178.498 379.984 178.199 380.032C177.9 380.085 177.604 380.112 177.311 380.112C176.751 380.112 176.234 380.019 175.759 379.832C175.29 379.64 174.882 379.363 174.535 379C174.194 378.632 173.927 378.179 173.735 377.64C173.543 377.101 173.447 376.483 173.447 375.784C173.447 375.219 173.532 374.691 173.703 374.2C173.879 373.709 174.13 373.285 174.455 372.928C174.78 372.565 175.178 372.283 175.647 372.08C176.116 371.872 176.644 371.768 177.231 371.768C177.716 371.768 178.164 371.851 178.575 372.016C178.991 372.176 179.348 372.411 179.647 372.72C179.951 373.024 180.188 373.403 180.359 373.856C180.53 374.304 180.615 374.816 180.615 375.392C180.615 375.616 180.591 375.765 180.543 375.84C180.495 375.915 180.404 375.952 180.271 375.952H174.855C174.871 376.464 174.94 376.909 175.063 377.288C175.191 377.667 175.367 377.984 175.591 378.24C175.815 378.491 176.082 378.68 176.391 378.808C176.7 378.931 177.047 378.992 177.431 378.992C177.788 378.992 178.095 378.952 178.351 378.872C178.612 378.787 178.836 378.696 179.023 378.6C179.21 378.504 179.364 378.416 179.487 378.336C179.615 378.251 179.724 378.208 179.815 378.208C179.932 378.208 180.023 378.253 180.087 378.344L180.487 378.864ZM183.388 373.072C183.564 372.875 183.751 372.696 183.948 372.536C184.146 372.376 184.354 372.24 184.572 372.128C184.796 372.011 185.031 371.923 185.276 371.864C185.527 371.8 185.796 371.768 186.084 371.768C186.527 371.768 186.916 371.843 187.252 371.992C187.594 372.136 187.876 372.344 188.1 372.616C188.33 372.883 188.503 373.205 188.62 373.584C188.738 373.963 188.796 374.381 188.796 374.84V380H187.364V374.84C187.364 374.227 187.223 373.752 186.94 373.416C186.663 373.075 186.239 372.904 185.668 372.904C185.247 372.904 184.852 373.005 184.484 373.208C184.122 373.411 183.786 373.685 183.476 374.032V380H182.044V371.896H182.9C183.103 371.896 183.228 371.995 183.276 372.192L183.388 373.072ZM193.025 380.128C192.385 380.128 191.891 379.949 191.545 379.592C191.203 379.235 191.033 378.72 191.033 378.048V373.088H190.057C189.971 373.088 189.899 373.064 189.841 373.016C189.782 372.963 189.753 372.883 189.753 372.776V372.208L191.081 372.04L191.409 369.536C191.425 369.456 191.459 369.392 191.513 369.344C191.571 369.291 191.646 369.264 191.737 369.264H192.457V372.056H194.801V373.088H192.457V377.952C192.457 378.293 192.539 378.547 192.705 378.712C192.87 378.877 193.083 378.96 193.345 378.96C193.494 378.96 193.622 378.941 193.729 378.904C193.841 378.861 193.937 378.816 194.017 378.768C194.097 378.72 194.163 378.677 194.217 378.64C194.275 378.597 194.326 378.576 194.369 378.576C194.443 378.576 194.51 378.621 194.569 378.712L194.985 379.392C194.739 379.621 194.443 379.803 194.097 379.936C193.75 380.064 193.393 380.128 193.025 380.128ZM207.329 369.84H203.617V380H202.073V369.84H198.353V368.536H207.329V369.84ZM211.845 375.064C211.845 374.733 211.797 374.432 211.701 374.16C211.61 373.883 211.474 373.645 211.293 373.448C211.117 373.245 210.901 373.091 210.645 372.984C210.389 372.872 210.098 372.816 209.773 372.816C209.09 372.816 208.549 373.016 208.149 373.416C207.754 373.811 207.509 374.36 207.413 375.064H211.845ZM212.997 378.864C212.821 379.077 212.61 379.264 212.365 379.424C212.119 379.579 211.855 379.707 211.573 379.808C211.295 379.909 211.007 379.984 210.709 380.032C210.41 380.085 210.114 380.112 209.821 380.112C209.261 380.112 208.743 380.019 208.269 379.832C207.799 379.64 207.391 379.363 207.045 379C206.703 378.632 206.437 378.179 206.245 377.64C206.053 377.101 205.957 376.483 205.957 375.784C205.957 375.219 206.042 374.691 206.213 374.2C206.389 373.709 206.639 373.285 206.965 372.928C207.29 372.565 207.687 372.283 208.157 372.08C208.626 371.872 209.154 371.768 209.741 371.768C210.226 371.768 210.674 371.851 211.085 372.016C211.501 372.176 211.858 372.411 212.157 372.72C212.461 373.024 212.698 373.403 212.869 373.856C213.039 374.304 213.125 374.816 213.125 375.392C213.125 375.616 213.101 375.765 213.053 375.84C213.005 375.915 212.914 375.952 212.781 375.952H207.365C207.381 376.464 207.45 376.909 207.573 377.288C207.701 377.667 207.877 377.984 208.101 378.24C208.325 378.491 208.591 378.68 208.901 378.808C209.21 378.931 209.557 378.992 209.941 378.992C210.298 378.992 210.605 378.952 210.861 378.872C211.122 378.787 211.346 378.696 211.533 378.6C211.719 378.504 211.874 378.416 211.997 378.336C212.125 378.251 212.234 378.208 212.325 378.208C212.442 378.208 212.533 378.253 212.597 378.344L212.997 378.864ZM215.906 373.52C216.162 372.965 216.476 372.533 216.85 372.224C217.223 371.909 217.679 371.752 218.218 371.752C218.388 371.752 218.551 371.771 218.706 371.808C218.866 371.845 219.007 371.904 219.13 371.984L219.026 373.048C218.994 373.181 218.914 373.248 218.786 373.248C218.711 373.248 218.602 373.232 218.458 373.2C218.314 373.168 218.151 373.152 217.97 373.152C217.714 373.152 217.484 373.189 217.282 373.264C217.084 373.339 216.906 373.451 216.746 373.6C216.591 373.744 216.45 373.925 216.322 374.144C216.199 374.357 216.087 374.603 215.986 374.88V380H214.554V371.896H215.37C215.524 371.896 215.631 371.925 215.69 371.984C215.748 372.043 215.788 372.144 215.81 372.288L215.906 373.52ZM220.062 380V371.896H220.918C221.12 371.896 221.246 371.995 221.294 372.192L221.398 373.024C221.696 372.656 222.032 372.355 222.406 372.12C222.779 371.885 223.211 371.768 223.702 371.768C224.246 371.768 224.686 371.92 225.022 372.224C225.363 372.528 225.608 372.939 225.758 373.456C225.875 373.163 226.024 372.909 226.206 372.696C226.392 372.483 226.6 372.307 226.83 372.168C227.059 372.029 227.302 371.928 227.558 371.864C227.819 371.8 228.083 371.768 228.35 371.768C228.776 371.768 229.155 371.837 229.486 371.976C229.822 372.109 230.104 372.307 230.334 372.568C230.568 372.829 230.747 373.152 230.87 373.536C230.992 373.915 231.054 374.349 231.054 374.84V380H229.622V374.84C229.622 374.205 229.483 373.725 229.206 373.4C228.928 373.069 228.528 372.904 228.006 372.904C227.771 372.904 227.547 372.947 227.334 373.032C227.126 373.112 226.942 373.232 226.782 373.392C226.622 373.552 226.494 373.755 226.398 374C226.307 374.24 226.262 374.52 226.262 374.84V380H224.83V374.84C224.83 374.189 224.699 373.704 224.438 373.384C224.176 373.064 223.795 372.904 223.294 372.904C222.942 372.904 222.616 373 222.318 373.192C222.019 373.379 221.744 373.635 221.494 373.96V380H220.062ZM237.618 373.232C237.554 373.349 237.455 373.408 237.322 373.408C237.242 373.408 237.151 373.379 237.05 373.32C236.949 373.261 236.823 373.197 236.674 373.128C236.53 373.053 236.357 372.987 236.154 372.928C235.951 372.864 235.711 372.832 235.434 372.832C235.194 372.832 234.978 372.864 234.786 372.928C234.594 372.987 234.429 373.069 234.29 373.176C234.157 373.283 234.053 373.408 233.978 373.552C233.909 373.691 233.874 373.843 233.874 374.008C233.874 374.216 233.933 374.389 234.05 374.528C234.173 374.667 234.333 374.787 234.53 374.888C234.727 374.989 234.951 375.08 235.202 375.16C235.453 375.235 235.709 375.317 235.97 375.408C236.237 375.493 236.495 375.589 236.746 375.696C236.997 375.803 237.221 375.936 237.418 376.096C237.615 376.256 237.773 376.453 237.89 376.688C238.013 376.917 238.074 377.195 238.074 377.52C238.074 377.893 238.007 378.24 237.874 378.56C237.741 378.875 237.543 379.149 237.282 379.384C237.021 379.613 236.701 379.795 236.322 379.928C235.943 380.061 235.506 380.128 235.01 380.128C234.445 380.128 233.933 380.037 233.474 379.856C233.015 379.669 232.626 379.432 232.306 379.144L232.642 378.6C232.685 378.531 232.735 378.477 232.794 378.44C232.853 378.403 232.927 378.384 233.018 378.384C233.114 378.384 233.215 378.421 233.322 378.496C233.429 378.571 233.557 378.653 233.706 378.744C233.861 378.835 234.047 378.917 234.266 378.992C234.485 379.067 234.757 379.104 235.082 379.104C235.359 379.104 235.602 379.069 235.81 379C236.018 378.925 236.191 378.827 236.33 378.704C236.469 378.581 236.57 378.44 236.634 378.28C236.703 378.12 236.738 377.949 236.738 377.768C236.738 377.544 236.677 377.36 236.554 377.216C236.437 377.067 236.279 376.941 236.082 376.84C235.885 376.733 235.658 376.643 235.402 376.568C235.151 376.488 234.893 376.405 234.626 376.32C234.365 376.235 234.106 376.139 233.85 376.032C233.599 375.92 233.375 375.781 233.178 375.616C232.981 375.451 232.821 375.248 232.698 375.008C232.581 374.763 232.522 374.467 232.522 374.12C232.522 373.811 232.586 373.515 232.714 373.232C232.842 372.944 233.029 372.693 233.274 372.48C233.519 372.261 233.821 372.088 234.178 371.96C234.535 371.832 234.943 371.768 235.402 371.768C235.935 371.768 236.413 371.853 236.834 372.024C237.261 372.189 237.629 372.419 237.938 372.712L237.618 373.232Z" fill="#1E3A8A"/>
</g>
</g>
<defs>
<clipPath id="clip0_20_347">
<rect width="393.333" height="384" rx="12" fill="white"/>
</clipPath>
<clipPath id="clip1_20_347">
<rect width="300" height="308" fill="white" transform="translate(40 74)"/>
</clipPath>
</defs>
</svg>
