<svg width="54" height="54" viewBox="0 0 54 54" fill="none" xmlns="http://www.w3.org/2000/svg">
<path d="M26.6667 0C21.3925 0 16.2368 1.56397 11.8515 4.49414C7.46616 7.42431 4.04823 11.5891 2.02989 16.4618C0.0115542 21.3345 -0.516535 26.6962 0.512405 31.8691C1.54134 37.0419 4.0811 41.7934 7.8105 45.5228C11.5399 49.2522 16.2914 51.792 21.4643 52.8209C26.6371 53.8499 31.9989 53.3218 36.8716 51.3035C41.7443 49.2851 45.909 45.8672 48.8392 41.4819C51.7694 37.0966 53.3333 31.9408 53.3333 26.6667C53.3333 23.1647 52.6436 19.6971 51.3035 16.4618C49.9633 13.2264 47.9991 10.2867 45.5229 7.81049C43.0466 5.33426 40.1069 3.37 36.8716 2.02988C33.6362 0.689754 30.1686 0 26.6667 0V0ZM38.1333 20.2933L25.9467 36.2933C25.6983 36.616 25.3792 36.8776 25.0141 37.0578C24.6489 37.2381 24.2473 37.3324 23.84 37.3333C23.435 37.3355 23.0347 37.2454 22.6697 37.0698C22.3047 36.8942 21.9845 36.6378 21.7333 36.32L15.2267 28.0267C15.0113 27.75 14.8525 27.4337 14.7594 27.0956C14.6663 26.7576 14.6407 26.4046 14.6841 26.0567C14.7274 25.7088 14.8388 25.3728 15.012 25.068C15.1852 24.7631 15.4167 24.4954 15.6933 24.28C16.2521 23.845 16.9607 23.6499 17.6633 23.7374C18.0112 23.7807 18.3472 23.8921 18.6521 24.0653C18.9569 24.2385 19.2246 24.47 19.44 24.7467L23.7867 30.2933L33.8667 16.96C34.0803 16.6798 34.347 16.4445 34.6516 16.2674C34.9561 16.0903 35.2926 15.975 35.6417 15.9279C35.9909 15.8809 36.3459 15.9031 36.6865 15.9932C37.027 16.0834 37.3465 16.2397 37.6267 16.4533C37.9068 16.6669 38.1422 16.9337 38.3192 17.2382C38.4963 17.5428 38.6117 17.8792 38.6587 18.2284C38.7058 18.5775 38.6836 18.9325 38.5935 19.2731C38.5033 19.6137 38.347 19.9332 38.1333 20.2133V20.2933Z" fill="#003399"/>
</svg>
