<svg width="16" height="16" viewBox="0 0 16 16" fill="none" xmlns="http://www.w3.org/2000/svg">
<g clip-path="url(#clip0_5151_16300)">
<path d="M13.3174 8.65617C13.3174 11.9856 10.9867 13.6504 8.21662 14.6159C8.07157 14.6651 7.914 14.6627 7.77048 14.6092C4.99371 13.6504 2.66309 11.9856 2.66309 8.65617V3.99492C2.66309 3.81832 2.73324 3.64894 2.85812 3.52407C2.983 3.39919 3.15237 3.32903 3.32898 3.32903C4.66076 3.32903 6.32549 2.52996 7.48414 1.5178C7.62522 1.39728 7.80467 1.33105 7.99022 1.33105C8.17577 1.33105 8.35523 1.39728 8.4963 1.5178C9.66161 2.53662 11.3197 3.32903 12.6515 3.32903C12.8281 3.32903 12.9974 3.39919 13.1223 3.52407C13.2472 3.64894 13.3174 3.81832 13.3174 3.99492V8.65617Z" stroke="#003399" stroke-width="1.33178" stroke-linecap="round" stroke-linejoin="round"/>
<path d="M5.99304 7.99096L7.32483 9.32275L9.98839 6.65918" stroke="#003399" stroke-width="1.33178" stroke-linecap="round" stroke-linejoin="round"/>
</g>
<defs>
<clipPath id="clip0_5151_16300">
<rect width="15.9814" height="15.9814" fill="white"/>
</clipPath>
</defs>
</svg>
